<svg xmlns="http://www.w3.org/2000/svg" xml:space="preserve" width="358.76721" height="120"><path d="M0 0c14.723-9.357 22.271 8.823 38.119 3.948 1.251-.521 2.309-1.025 4.09-1.748L46.003.65C36.816 1.526 24.222-16.845 0 0" style="fill:#fbbf16;fill-opacity:1;fill-rule:evenodd;stroke:none" transform="matrix(1.24805 0 0 -1.24805 70.6 23.238)"/><path d="M0 0c-10.781 7.682-19.833 14.052-29.97 10.583 18.867 10.517 36.326 6.348 52.794-.844-28.957 20.392-80.969 14.432-88.817-.68C-44.73 24.813-28.221-1.002 0 0" style="fill:#fee901;fill-opacity:1;fill-rule:nonzero;stroke:none" transform="matrix(1.24805 0 0 -1.24805 173.69 28.49)"/><path d="M0 0c-14.728-3.198-27.667-3.167-42.074 7.631C-29.156-10.688-.973-18.876 26.983-14.662 17.592-11.493 8.122-5.934 0 0" style="fill:#f68b1a;fill-opacity:1;fill-rule:nonzero;stroke:none" transform="matrix(1.24805 0 0 -1.24805 183.388 36.765)"/><path d="M0 0c-34.315-14.732-71.123 43.736-115.599 17.537C-79.806 27.822-48.912-43.395 0 0" style="fill:#ee2722;fill-opacity:1;fill-rule:evenodd;stroke:none" transform="matrix(1.24805 0 0 -1.24805 280.562 37.17)"/><path d="M0 0c0-1.197 1.385-2.18 4.144-2.18 2.753 0 4.134.983 4.134 2.18 0 1.23-1.381 2.223-4.134 2.223C1.385 2.223 0 1.23 0 0m11.232 0c0-2.457-2.801-4.307-7.088-4.307-4.284 0-7.095 1.85-7.095 4.307 0 2.473 2.811 4.33 7.095 4.33 4.287 0 7.088-1.857 7.088-4.33" style="fill:#a09d9e;fill-opacity:1;fill-rule:nonzero;stroke:none" transform="matrix(1.24805 0 0 -1.24805 239.614 83.178)"/><path d="M0 0v8.028h12.059v-1.77H2.652V4.565h5.715V2.916H2.652V0z" style="fill:#a09d9e;fill-opacity:1;fill-rule:nonzero;stroke:none" transform="matrix(1.24805 0 0 -1.24805 255.367 88.228)"/><path d="M0 0v2.138h13.292V0h-5.32v-5.891H5.305V0z" style="fill:#a09d9e;fill-opacity:1;fill-rule:nonzero;stroke:none" transform="matrix(1.24805 0 0 -1.24805 277.473 80.877)"/><path d="M0 0h-2.668v8.028H0V5.312h7.663v2.716h2.651V0H7.663v3.168H0z" style="fill:#a09d9e;fill-opacity:1;fill-rule:nonzero;stroke:none" transform="matrix(1.24805 0 0 -1.24805 298.795 88.228)"/><path d="M0 0h-9.646v-1.359h5.709v-1.534h-5.709v-1.572H0v-1.769h-12.302v8.028H0z" style="fill:#a09d9e;fill-opacity:1;fill-rule:nonzero;stroke:none" transform="matrix(1.24805 0 0 -1.24805 328.932 80.448)"/><path d="M106.092 773.279h6.14V754.7h-6.14z" style="fill:#7b7678;fill-opacity:1;fill-rule:nonzero;stroke:none" transform="matrix(1.24805 0 0 -1.24805 -90.588 1031.525)"/><path d="M0 0v-4.285h12.574c2.754 0 4.1.926 4.1 2.14C16.674-.95 15.356 0 12.625 0zm24.906-14.316h-9.261L6.643-8.47H0v-5.846h-6.139V4.263H13.87c4.951 0 9.713-2.33 9.713-6.457 0-3.073-2.595-5.955-9.184-5.955z" style="fill:#7b7678;fill-opacity:1;fill-rule:nonzero;stroke:none" transform="matrix(1.24805 0 0 -1.24805 63.855 71.753)"/><path d="M0 0c-8.441 0-15.217 3.047-15.217 9.106v10.085h6.244v-8.972c0-3.386 3.626-5.083 9.025-5.083 5.426 0 9.052 1.697 9.052 5.083v8.972h6.115V9.106C15.219 3.047 8.442 0 0 0" style="fill:#7b7678;fill-opacity:1;fill-rule:nonzero;stroke:none" transform="matrix(1.24805 0 0 -1.24805 158.988 90.384)"/><path d="M220.47 773.279h6.142V754.7h-6.142z" style="fill:#7b7678;fill-opacity:1;fill-rule:nonzero;stroke:none" transform="matrix(1.24805 0 0 -1.24805 -90.588 1031.525)"/><path d="M0 0v4.952h30.757V0h-12.31v-13.627h-6.17V0z" style="fill:#7b7678;fill-opacity:1;fill-rule:nonzero;stroke:none" transform="matrix(1.24805 0 0 -1.24805 196.401 72.613)"/><path d="M0 0c0-10.848 20.04-12.424 29.564-6.748l-3.441 4.289C21.024-6.198 6.83-6.033 6.83 0s13.928 6.197 19.031 2.461l3.44 4.287C19.776 12.424 0 10.847 0 0" style="fill:#7b7678;fill-opacity:1;fill-rule:nonzero;stroke:none" transform="matrix(1.24805 0 0 -1.24805 98.06 77.927)"/><path d="M0 0c0-10.848 20.04-12.424 29.565-6.748l-3.439 4.289C21.024-6.198 6.832-6.033 6.832 0s13.927 6.197 19.029 2.461l3.438 4.287C19.776 12.424 0 10.847 0 0" style="fill:#7b7678;fill-opacity:1;fill-rule:nonzero;stroke:none" transform="matrix(1.24805 0 0 -1.24805 0 77.927)"/><path d="m0 0-4.313-6.193H5.745L1.509 0zm-6.747-9.925-3.045-4.235h-7.334L-3.68 4.473h9.133L18.899-14.16h-7.676L8.179-9.925z" style="fill:#ee2722;fill-opacity:1;fill-rule:nonzero;stroke:none" transform="matrix(1.24805 0 0 -1.24805 45.924 101.567)"/><path d="m0 0 9.5 12.122h8.869V-6.455h-6.14V6.934L1.456-6.455h-3.522L-12.652 6.934V-6.455h-6.06v18.577h9.13z" style="fill:#ee2722;fill-opacity:1;fill-rule:nonzero;stroke:none" transform="matrix(1.24805 0 0 -1.24805 94.662 111.183)"/><path d="M0 0h-22.315v-3.147h13.209v-3.549h-13.209v-3.631H0v-4.098h-28.456V4.152H0z" style="fill:#ee2722;fill-opacity:1;fill-rule:nonzero;stroke:none" transform="matrix(1.24805 0 0 -1.24805 159.825 101.237)"/><path d="M0 0v-4.285h12.573c2.753 0 4.101.923 4.101 2.141C16.674-.954 15.352 0 12.625 0zm24.907-14.317h-9.262l-9 5.845H0v-5.845h-6.139V4.26h20.01c4.951 0 9.713-2.326 9.713-6.458 0-3.069-2.595-5.949-9.181-5.949z" style="fill:#ee2722;fill-opacity:1;fill-rule:nonzero;stroke:none" transform="matrix(1.24805 0 0 -1.24805 172.75 101.37)"/><path d="M239.492 749.545h6.142v-18.58h-6.142z" style="fill:#ee2722;fill-opacity:1;fill-rule:nonzero;stroke:none" transform="matrix(1.24805 0 0 -1.24805 -90.588 1031.525)"/><path d="m0 0-4.311-6.193H5.745L1.512 0zm-6.747-9.925-3.042-4.235h-7.332L-3.677 4.473h9.132L18.9-14.16h-7.675L8.182-9.925z" style="fill:#ee2722;fill-opacity:1;fill-rule:nonzero;stroke:none" transform="matrix(1.24805 0 0 -1.24805 279.81 101.567)"/><path d="M0 0c0 3.89 4.924 6.428 14.509 6.428 6.218 0 11.088-1.111 15.031-3.279L27.449-.692c-3.81 2.224-8.523 2.994-13.789 2.994-4.791 0-6.67-.69-6.67-1.799 0-1.086 1.958-1.484 7.623-1.512 9.633-.052 15.616-1.267 15.616-5.609 0-4.418-6.617-6.961-15.881-6.961-6.138 0-10.879 1.217-14.981 3.946L1.591-6.01C5.14-8.551 9.636-9.317 15.038-9.317c6.249 0 8.203.977 8.203 2.119 0 1.004-2.198 1.318-9.026 1.401C5.56-5.691 0-4.343 0 0" style="fill:#ee2722;fill-opacity:1;fill-rule:nonzero;stroke:none" transform="matrix(1.24805 0 0 -1.24805 305.028 103.053)"/><path d="M0 0c0-10.847 20.041-12.423 29.567-6.745l-3.44 4.29C21.022-6.196 6.833-6.032 6.833 0c0 6.034 13.929 6.199 19.028 2.461l3.441 4.289C19.777 12.426 0 10.848 0 0" style="fill:#ee2722;fill-opacity:1;fill-rule:nonzero;stroke:none" transform="matrix(1.24805 0 0 -1.24805 221.328 107.546)"/><path d="M0 0v.834h5.173V0h-2.07v-2.292H2.065V0z" style="fill:#ee2722;fill-opacity:1;fill-rule:nonzero;stroke:none" transform="matrix(1.24805 0 0 -1.24805 344.064 100.702)"/><path d="m0 0 1.596 2.041h1.492v-3.126H2.053v2.253L.243-1.085H-.35l-1.777 2.253v-2.253h-1.022v3.126h1.536z" style="fill:#ee2722;fill-opacity:1;fill-rule:nonzero;stroke:none" transform="matrix(1.24805 0 0 -1.24805 354.913 102.208)"/></svg>