<svg xmlns="http://www.w3.org/2000/svg" width="150" height="75" fill="none" viewBox="0 0 150 75"><path fill="#0E97D5" d="M29.912 0h-3.29C16.9 0 6.302 7.824 2.957 17.474L0 25.995h20.894zM20.894 26 7.08 65.826c11.538 0 24.116-9.287 28.087-20.74L41.788 26z"/><path fill="#0666B0" d="m69.578 23.753 1.744-5.02h-13.13l-2.52 7.262h10.867c1.25 0 2.61-1.006 3.04-2.242M52.326 35.595 55.663 26h-9.936l-3.633 10.456c-1.616 4.652.885 8.435 5.572 8.435h14.582l2.894-8.35h-12.14c-.553 0-.858-.425-.68-.946zM96.588 23.753l1.744-5.02H85.2l-2.52 7.262H93.55c1.25 0 2.61-1.006 3.04-2.242M79.336 35.595 82.672 26h-9.935l-3.633 10.456c-1.616 4.652.885 8.435 5.572 8.435h14.582l2.894-8.35h-12.14c-.553 0-.859-.425-.68-.946z"/><path fill="#010101" d="m110.074 62.836 2.127-6.134h-1.903l-2.127 6.134zM138.791 62.836l2.127-6.134h-1.903l-2.127 6.134zM129.946 62.836h4.044c1.054 0 2.2-.847 2.56-1.889l1.47-4.245h-1.913l-1.319 3.797c-.178.507-.734.92-1.246.92h-2.186c-.511 0-.785-.413-.607-.92l1.319-3.797h-1.912l-1.47 4.245c-.36 1.042.201 1.89 1.251 1.89zM141.903 56.702l-.493 1.418h3.095l-1.634 4.716h1.903l1.638-4.716h3.099l.489-1.418zM117.806 60.72c.009.05-.123 1.382-.196 2.112h1.889s.146-2.016.137-2.225c-.018-.349-.264-.602-.671-.602.521 0 1.082-.417 1.26-.93l.502-1.44c.178-.512-.096-.928-.616-.928h-6.9239999999999995l-2.126 6.13h1.903l.817-2.357h3.692c.183 0 .301.1.333.245zm-3.208-2.605h3.573c.265 0 .406.213.315.472-.091.258-.379.47-.643.47h-3.574l.329-.946zM101.951 62.836h5.234l.493-1.413h-4.303c-.512 0-.785-.413-.607-.92l.506-1.468c.178-.507.735-.92 1.246-.92h4.304l.493-1.413h-5.235c-1.054 0-2.2.847-2.565 1.89l-.817 2.355c-.36 1.042.201 1.89 1.251 1.89M121.822 62.836h5.235l.492-1.413h-4.303c-.512 0-.785-.413-.607-.92l.506-1.468c.178-.507.735-.92 1.246-.92h4.304l.493-1.413h-5.235c-1.054 0-2.2.847-2.565 1.89l-.817 2.355c-.36 1.042.201 1.89 1.251 1.89M73.27 56.702h-1.903l-2.127 6.134h1.903zM49.638 56.702h-4.532c-1.055 0-2.2.847-2.56 1.89l-.818 2.355c-.36 1.042.201 1.89 1.25 1.89h4.533c1.054 0 2.2-.848 2.56-1.89l.817-2.356c.36-1.042-.2-1.889-1.25-1.889m-.813 2.333-.506 1.468c-.178.508-.735.92-1.246.92h-2.67c-.511 0-.785-.413-.607-.92l.507-1.468c.178-.507.734-.92 1.245-.92h2.67c.511 0 .785.413.607.92M59.569 59.076l.502-1.44c.178-.513-.096-.93-.616-.93H52.53l-2.127 6.13h1.903l.817-2.356h3.693c.182 0 .3.1.333.245.009.05-.123 1.382-.196 2.111h1.89s.145-2.016.136-2.224c-.018-.35-.265-.603-.67-.603.52 0 1.08-.417 1.259-.928zm-1.744-.485c-.09.263-.379.471-.643.471h-3.574l.329-.947h3.573c.265 0 .407.213.315.472zM91.499 62.836h5.107l.493-1.413h-4.176c-.511 0-.785-.413-.607-.92l.009-.023h4.87l.493-1.413h-4.87l.009-.023c.178-.507.735-.92 1.246-.92h4.176l.493-1.413h-5.107c-1.055 0-2.2.847-2.565 1.89l-.817 2.355c-.36 1.042.2 1.889 1.25 1.889zM83.475 59.063l.817-2.36h-1.907l-2.127 6.133h1.908l.83-2.387h4.523l-.826 2.387h1.912l2.127-6.134H88.82l-.817 2.36zM34.85 62.836h5.235l.493-1.413h-4.304c-.51 0-.785-.413-.607-.92l.507-1.468c.178-.507.735-.92 1.246-.92h4.304l.493-1.413h-5.235c-1.055 0-2.2.847-2.56 1.89l-.818 2.355c-.36 1.042.201 1.89 1.25 1.89zM75.36 59.035c.178-.507.735-.92 1.246-.92h4.304l.493-1.413h-5.235c-1.054 0-2.2.847-2.56 1.89l-.817 2.355c-.36 1.042.2 1.89 1.25 1.89h5.235l.493-1.414h-4.304c-.51 0-.785-.413-.607-.92l.507-1.468zM62.905 58.655c.037-.11.137-.209.265-.214.169-.013.187.082.333.377l1.72 3.456c.106.2.238.344.33.413.255.185.538.267.88.267.981 0 2.018-.657 2.405-1.78l1.548-4.468h-1.903l-1.438 4.141a.31.31 0 0 1-.265.213c-.146.014-.187-.082-.333-.376l-1.72-3.457a1.3 1.3 0 0 0-.33-.412c-.255-.186-.538-.267-.88-.267-.981 0-2.017.657-2.405 1.78l-1.561 4.503h1.903zM56.119 54.922c1.054 0 2.2-.847 2.565-1.89l.817-2.355c.36-1.042-.201-1.89-1.25-1.89h-5.966l-2.127 6.13h5.965zm-2.424-4.716h3.127c.51 0 .785.412.607.92l-.507 1.463c-.178.507-.735.92-1.246.92H52.55zM64.977 54.922c1.054 0 2.2-.847 2.565-1.89l.817-2.355c.36-1.042-.2-1.89-1.25-1.89h-5.966l-2.126 6.13h5.965zm-2.423-4.716h3.126c.511 0 .785.412.607.92l-.507 1.463c-.178.507-.734.92-1.246.92h-3.126zM69.4 54.921l1.296-1.4h3.633l.32 1.4h2.09l-1.214-5.282c-.292-1.278-2.154-1.278-3.337 0L67.31 54.92zm3.916-4.245c.128-.136.328-.136.36 0l.425 1.858H71.6zM44.065 54.921h5.107l.493-1.413H45.49c-.511 0-.785-.412-.607-.92l.01-.022h4.869l.493-1.414h-4.87l.01-.023c.177-.507.734-.92 1.245-.92h4.176l.493-1.413h-5.107c-1.054 0-2.2.848-2.565 1.89l-.817 2.355c-.36 1.042.201 1.89 1.255 1.89zM80.18 52.534h4.509l-.826 2.388h1.912l2.127-6.134H85.99l-.817 2.36h-4.514l.817-2.36h-1.908l-2.127 6.134h1.908zM41.825 53.033l1.47-4.245h-1.913l-1.319 3.796c-.178.507-.735.92-1.246.92h-2.642l-.493 1.413h3.573c1.054 0 2.2-.847 2.56-1.889zM58.196 68.159h-4.45l-.47 1.35h3.564c.489 0 .744.39.58.874l-.169.49c-.169.484-.698.874-1.186.874H43.016l.62-1.79c.348-.996-.186-1.803-1.19-1.803H39.14l-.47 1.35h2.42c.487 0 .743.395.579.875l-.475 1.364h-4.217l-.47 1.35h19.967c1.004 0 2.095-.807 2.437-1.804l.466-1.336c.347-.997-.187-1.803-1.191-1.803zM35.316 68.16h-2.405c-1.004 0-2.095.806-2.437 1.802l-1.086 3.135h6.033l1.087-3.135c.346-.996-.188-1.803-1.192-1.803m-.776 2.224-.474 1.363h-2.4l.474-1.363c.169-.485.698-.875 1.186-.875h.635c.488 0 .748.394.58.875M35.969 67.249l.342-.997h-1.374l-.342.997zM34.608 66.252h-1.373l-.347.997h1.374zM53.129 75h1.374l.346-.997h-1.373zM144.208 68.16h-4.45l-.47 1.35h3.564c.489 0 .744.389.58.874l-.169.489c-.169.485-.698.874-1.186.874h-4.993c-.484 0-.74-.385-.58-.865l1.606-4.63h-1.816l-1.607 4.63c-.173.48-.698.865-1.182.865-.479 0-.739-.38-.584-.856l.945-2.723h-1.817l-.944 2.723c-.174.476-.699.856-1.178.856H119.43l1.241-3.579h-4.554c-.63 0-1.319.508-1.538 1.137l-.461 1.328c-.219.625.118 1.137.748 1.137h2.743l-.461 1.336h13.195c.328 0 .67-.086.99-.24.214.154.493.24.821.24h1.771c.329 0 .671-.086.991-.24.214.154.493.24.821.24h6.764c.844 0 1.753-.575 2.223-1.35 0 0 .132-.213.214-.453s.466-1.336.466-1.336c.347-.997-.187-1.803-1.191-1.803zm-26.133 2.255h-1.625c-.251 0-.384-.199-.297-.448.087-.25.356-.449.607-.449h1.625zM120.023 66.252h-1.373l-.347.997h1.374zM116.601 67.249h1.373l.343-.997h-1.374zM127.427 75h1.374l.346-.997h-1.373zM94.999 68.154l-1.602 4.621c-.169.485-.698.875-1.187.875h-.305l-.47 1.35h1.19c1.005 0 2.096-.807 2.438-1.803l1.748-5.047h-1.817zM110.691 68.16h-2.88l2.035-1.926h-1.811l-3.46 3.275h4.76c.489 0 .744.39.58.875l-.169.489c-.169.485-.698.874-1.187.874h-5.782l.621-1.79c.346-.996-.188-1.802-1.192-1.802h-2.478c-1.004 0-2.095.806-2.437 1.803l-.466 1.336c-.346.997.188 1.803 1.192 1.803h2.414c-.242.327-.639.553-1.013.553H96.92l-.47 1.35h3.382c1.004 0 2.095-.806 2.437-1.803l.037-.104h6.668c1.004 0 2.095-.807 2.437-1.803l.465-1.337c.347-.996-.187-1.803-1.191-1.803zm-9.256 2.224-.078.23-.392 1.138h-1.593c-.488 0-.744-.39-.58-.874l.17-.49c.168-.485.698-.874 1.186-.874h.707c.489 0 .744.39.58.874zM92.357 71.294l1.086-3.135h-1.816l-.94 2.71c-.17.484-.699.874-1.187.874h-.977c-.484 0-.74-.386-.584-.861l.945-2.719h-1.817l-.944 2.719c-.174.475-.699.86-1.183.86h-9.479c-.484 0-.74-.385-.584-.86l.945-2.719h-1.817l-.945 2.719c-.173.475-.698.86-1.182.86s-.744-.39-.58-.874l.94-2.709h-1.816l-.698 2.007-.242.702c-.169.485-.698.875-1.186.875-.489 0-.744-.39-.58-.875l.94-2.718H66.84l-1.602 4.62c-.17.486-.699.875-1.187.875h-.502c-.488 0-.744-.39-.58-.874l1.128-3.267H62.28l-1.278 3.693c-.347.996.187 1.803 1.191 1.803h2.273c1.004 0 2.095-.807 2.438-1.803l.036-.105h1.77c.33 0 .672-.086.991-.24.215.154.493.24.822.24h1.77c.33 0 .671-.086.991-.24.215.154.493.24.822.24h11.25c.328 0 .67-.086.99-.24.215.154.493.24.822.24h2.747c1.004 0 2.095-.806 2.437-1.803zM74.448 66.252h-1.374l-.346.997H74.1zM72.74 66.252h-1.373l-.343.997h1.374zM71.038 66.252h-1.374l-.347.997h1.374zM89.883 67.249h1.374l.346-.997H90.23zM82.892 75h1.419l.356-1.028h-1.42zM81.486 73.972 81.13 75h1.42l.355-1.028z"/></svg>