<svg xmlns="http://www.w3.org/2000/svg" width="199" height="85" viewBox="0 0 199 85"><g fill="none" fill-rule="evenodd"><path fill="#FFF" d="m84.87 2.774 5.309.017-.024 19.213-6.195-.023c-.293.067-.65.123-1.042.117-2.18 0-4.103-.915-5.121-3.473-1.417 2.708-3.576 3.716-6.026 3.716-.863 0-1.577-.152-2.168-.396.02.012-15.227-.02-15.227-.02l.03-18.304 7.374.011c2.856 0 5.558 2.275 5.558 5.95 0 1.577-.73 2.826-.73 2.826 1.025-2.064 3.156-3.048 5.24-3.03 2.133 0 4.386.664 5.7 4.08.992-2.566 2.382-3.984 5.534-3.958.714 0 1.036.106 1.776.296zm31.385.118 10.524.012-.024 19.143-13.3-.02c-.949.345-1.944.55-2.678.55-1.712.015-4.674-.595-5.522-3.482-.62 1.548-3.228 2.92-4.454 2.91l-8.543-.017.038-18.208 6.892.015c2.81 0 5.496 1.43 5.484 5.164.006.264-.047.654-.131 1.05l11.694.011z"/><path fill="#E40039" d="M83.77 18.425c-1.262 0-2.292-1.155-2.283-2.582.006-1.425 1.024-2.583 2.286-2.583 1.258.012 2.265 1.167 2.265 2.597 0 1.413-1.022 2.568-2.268 2.568m2.247-6.583c-.828-.833-1.92-1.363-3.122-1.363-2.558 0-4.636 2.356-4.645 5.261 0 2.893 2.078 5.267 4.63 5.267 1.212 0 2.309-.527 3.137-1.38l-.012 1.29h3.08l.023-17.033-3.088-.012zm-16.105 2.85c0-1.094.857-1.974 1.9-1.962 1.038 0 1.896.88 1.884 1.96h-3.784zm1.885-4.213c-2.836-.012-5.136 2.403-5.14 5.378-.005 2.95 2.272 5.373 5.113 5.385 2.157 0 3.851-1.003 4.724-2.606l-2.517-1.199a2.1 2.1 0 0 1-1.94 1.21c-1.18 0-2.12-.89-2.12-1.995.007-.082-.023-.04-.01-.12l6.847.03c.035-.236.047-.464.035-.693.038-3.473-2.168-5.39-4.992-5.39"/><path fill="#E40039" d="M66.122 9.524c-.006-2.629-2.086-4.763-4.668-4.763-.073 0-.447.01-.515.01l-5.449-.018-.011 16.097h3.292l.026-13.31 1.967-.012c1.229 0 2.148.947 2.148 2.114 0 1.148-.992 2.095-2.21 2.095l-.77.012-.005 3.84 3.298 5.278h3.88l-4.544-6.73c2.034-.51 3.555-2.376 3.561-4.613M99.61 18.13h-2.96l.013-10.45 2.064.008c.907-.009 1.647.762 1.641 1.71.006.95-.74 1.7-1.65 1.7h-1.071v2.88l1.963.02c1.098-.01 1.94.92 1.94 2.06-.055 1.182-.748 2-1.94 2.073m2.605-5.962c.843-.82 1.375-1.928 1.375-3.136a4.24 4.24 0 0 0-1.126-2.887c-.738-.853-2.037-1.216-3.81-1.216l-5.306-.018-.02 16.018h6.85c2.616-.032 4.741-2.11 4.753-4.625-.009-1.823-.638-3.133-2.716-4.136m20.432-8.122-.032 16.942h3.111l.026-16.933zm-10.026 12.846c0 .968-.793 1.753-1.767 1.753a1.756 1.756 0 0 1-1.774-1.753l.006-5.785-3.073-.015-.005 6.41c-.006 2.17 2.156 3.937 4.822 3.937 2.675.008 4.847-1.756 4.847-3.928l.011-6.404h-3.06zm4.762 4.084 3.105.011.02-16.932-3.105-.009z"/><path fill="#FFD400" d="M149.791 12.305c.006-6.079 4.761-10.988 10.623-10.965 5.856 0 10.6 4.924 10.588 11.012-.009 6.067-4.764 10.977-10.623 10.977-5.853-.015-10.594-4.942-10.588-11.024"/><path fill="#FFF" d="M137.757 15.68c-.182-.295-.331-.922-.395-1.766-2.506.407-3.644-1.28-3.556-2.779.058-1.166.34-1.624 1.592-2.647-1.235-.205-1.946-1.3-1.847-2.233.097-.777.21-.97.38-1.24l.132-.182.205.132c.012.006.925.654 1.305.83.012.014.033.014.117.032.082.012.17.026.273.035.207.038.48.088.752.173.512.167 1.13.495 1.287 1.225.167.672.041 1.184-.298 1.648a3.8 3.8 0 0 1-.585.603c-.217.197-.48.402-.752.633-.393.34-.589.736-.554 1.108.053.46.401.67.808.68.495 0 .969-.275 1.519-.68.27-.187.553-.416.834-.615.293-.208.594-.416.928-.569.292-.155.556-.23.79-.28.246-.045.453-.066.67-.089.38-.047.679-.09 1.015-.299q.145-.095.355-.305c.149-.132.307-.287.47-.428.337-.287.773-.563 1.306-.592.137-.012.287-.012.421-.02.155-.012.258-.038.308-.044.04-.024.09-.068.193-.147.085-.088.196-.19.316-.316.252-.24.597-.522 1.068-.69.615-.207 1.036-.342 1.428-.515.38-.164.74-.358 1.27-.724.322-.243 1.633-.706 3.006.243.41.305.74.56 1.126.897.375.32.811.71 1.426 1.252.184.196.389.445.576.688.19.255.372.496.515.68.659.842 1.156 1.49 1.261 2.287.188 1.407.317 2.216.84 3.643 0 .01.018.023.041.053.03.035.059.064.094.108l.117.135c.053.041.09.094.14.15.085.126.164.254.223.398.067.12.137.26.214.393.137.252.307.46.553.612.322.173.395.24.523.36.232.224.112.56-.076.722-.12.126-.28.185-.477.223.094.375-.184.756-.752.78a3.2 3.2 0 0 1-2.247-.848l-.041.03c-.123.093-.31.234-.547.343-.284.146-.612.131-.86.123a2.4 2.4 0 0 0-.393-.038 1.4 1.4 0 0 0-.319 0c-.205.061-.445.143-.694.231-.254.082-.55.167-.813.188-.5.011-.828-.19-.983-.534a.4.4 0 0 1-.094-.22c-.187.381-.407.69-.6.798a2.5 2.5 0 0 1-.617.132c-.097.02-.194.02-.26.035-.013 0-.054 0-.065.006-.81.392-2.096.9-2.605.914-.556.026-1.141-.448-1.472-1.12-.249.012-.544-.055-.655-.16-.316-.332-.767-1.24-.796-1.592a.53.53 0 0 1 .295-.493c.138-.079.325-.129.492-.155.322-.07.693-.067.857-.053h.164c.05 0 .111.012.164.024.041 0 .061.008.105.03.109-.165.334-.22.495-.25h.105c-.1-.088-.181-.179-.26-.264-.05.032-.1.044-.158.064-.14.044-.343.088-.556.1-.676.047-1.785-.064-1.888-.064-.178.008-.491.064-.82.111a3.7 3.7 0 0 1-.816.07 64 64 0 0 0-.342.707c-.114.237-.24.483-.325.598-.146.205-.33.322-.497.416-.082.023-.153.07-.217.09-.058.03-.114.056-.152.09a6 6 0 0 1-.623.347c-.243.11-.55.223-.82.182-.62-.105-1.071-.16-1.276-.167-.085 0-.178.03-.319.117a3 3 0 0 1-.21.162c-.082.07-.15.137-.238.21-.321.28-.743.61-1.355.572-.05-.015-.163-.015-.286-.032-.056-.026-.12-.035-.179-.047-.04.06-.085.117-.12.2-.04.052-.07.12-.1.175-.043.068-.081.132-.125.185-.202.272-.483.483-.995.504-.018 0-.059 0-.114-.02a.6.6 0 0 1-.14-.024c-.1-.015-.223-.044-.346-.064-.129-.036-.243-.056-.342-.08l-.118-.02c-.035.02-.07.06-.096.064a.33.33 0 0 1-.193.056c-.082 0-.337-.02-.606-.076-.123-.044-.263-.088-.398-.16-.108-.07-.26-.18-.304-.365-.062-.267-.024-.442.061-.589.03-.067.073-.123.102-.182.027-.052.039-.085.07-.164.03-.117.05-.24.065-.36.035-.123.053-.264.1-.393.117-.287.319-.504.722-.536l.036-.024c.26-.665.98-1.052 1.434-1.029h.017a.98.98 0 0 1 .679.516c.076-.076.155-.152.187-.23.012-.02.02-.069.044-.098.024-.059.032-.112.05-.176q.057-.203.14-.42c.106-.26.305-.656.723-.656.372 0 .74-.05.98-.152.109-.04.162-.08.203-.1m14.658-.108c-.295.053-.585.12-.825.167.067.173.167.37.287.59.1-.19.22-.367.336-.493.068-.088.135-.165.202-.264m16.318 2.802c-.128.42-.45.835-1.042.88-.286.01-.65-.124-.948-.244-.146-.065-.295-.117-.442-.17a1 1 0 0 0-.304-.08c-.05-.008-.1 0-.158 0-.061 0-.132.01-.196.01a2.7 2.7 0 0 1-.53.035c-.301 0-.638-.08-.925-.34a2.63 2.63 0 0 1-2.092.888c-.28 0-.84-.223-.743-.66-.831-.008-1.203-.744-.653-1.149.08-.055.15-.108.266-.196.1-.097.25-.229.454-.484.43-.44.697-.96.898-1.553.217-.607.357-1.263.507-1.92.295-1.316.617-2.758 1.639-3.9.772-.877 1.372-1.358 2.897-2.478.439-.325.901-.774 1.34-1.125.419-.367.88-.727 1.3-.754.684-.088 1.852.18 2.76 1.375 0 0 .017.01.017.024.032.014.07.02.125.043.13.04.276.077.445.12.366.097.829.218 1.306.484.298.173.5.326.673.48.084.057.158.118.251.19.082.063.158.127.264.17a.68.68 0 0 0 .383.125c.076.005.143.02.234.04.097.01.185.04.29.068.298.09.609.26.895.448.284.18.55.384.811.56.287.194.559.273.919.35q.27.066.58.134c.21.064.424.14.681.252.468.226.864.448 1.215.68.336.217.614.425.892.61.527.372.948.603 1.478.603.386 0 .659-.23.664-.624-.005-.179-.096-.396-.298-.656a9 9 0 0 0-.34-.376c-.14-.155-.278-.275-.41-.413-.286-.275-.587-.583-.792-.888-.226-.32-.392-.668-.375-1.076.035-.404.225-.83.506-1.096a3.6 3.6 0 0 1 1.563-.844c.217-.062.401-.106.574-.164.172-.065.29-.117.407-.217.128-.12.251-.223.324-.27.047-.038.097-.082.161-.09.068-.015.214-.036.31.11.176.282.252.534.293.778.035.216.02.413.02.58 0 .917-.482 1.71-1.597 1.996.875.841 1.519 1.805 1.519 2.746-.006 1.774-1.528 2.61-2.699 2.61-.067 0-.213-.01-.4-.039.084.398.04.782-.021 1.087a5 5 0 0 1-.14.504l-.05.153c-.009.08 0 .111.167.135.108.02.207.02.307.02h.167c.07.027.126.027.178.047.565.164.697.621.758.97.05.176.073.34.129.507q.031.066.05.132c.234-.284.535-.41.784-.41.366 0 1.138.694 1.264.923.059.12.073.23.073.32 0 .044-.014.076-.014.114.032-.217.404-.17.606.202.137.24.219.425.187.79.003.02.017.04.026.075.018.055.047.13.073.205.032.1.073.188.088.275.018.091.035.2.018.311-.018.176-.132.284-.229.364a1.3 1.3 0 0 1-.34.173c-.23.087-.502.14-.69.15a.6.6 0 0 1-.304-.1q-.259.038-.834.037c-.632-.023-.978-.287-1.168-.55-.1-.118-.149-.226-.213-.314-.062.012-.117.04-.176.053-.059.044-.126.064-.181.088-.03.008-.068.008-.085.023-.03 0-.07.018-.106.018-.462.014-.799-.244-1.08-.466-.149-.109-.286-.232-.468-.343a2.6 2.6 0 0 0-.57-.255c-.135-.027-.299-.07-.469-.085a1.4 1.4 0 0 0-.588.035c-.705.193-1.229-.147-1.624-.405-.111-.079-.208-.132-.325-.208a1.6 1.6 0 0 1-.325-.32c-.298-.439-.486-.984-.562-1.576a2.3 2.3 0 0 1-.702.105l-1.115-.076c-.822 0-1.209.114-1.832.15-.366.017-.94 0-1.18-.015-.017.015-.05.056-.084.064.137.033.21.097.287.208a.4.4 0 0 1 .114-.023l1.197.015c.34.02.623.15.623.656.009.238-.413 1.41-1.2 1.565-.096.446-.43 1.19-1.238 1.161-.559 0-1.65-.316-2.493-.615a.8.8 0 0 1-.196-.13c-.032-.046-.08-.079-.12-.12-.024-.029-.05-.055-.065-.09-.199.011-.327 0-.427-.006a.6.6 0 0 1-.307-.132 1.8 1.8 0 0 1-.45-.792c-.01-.067-.03-.134-.042-.187m.132-2.014c.067-.108.114-.223.16-.316.057-.112.1-.208.156-.288-.155-.008-.278-.008-.413-.032-.073 0-.158-.01-.243-.023.118.21.24.437.34.66"/><path fill="#E40039" d="M135.397 6.324c.653.176 1.367.19 1.853.718.278.352.304.935.093 1.3-.368.673-1.13 1.04-1.61 1.617a1.64 1.64 0 0 0-.485 1.644c.167.536.673.912 1.203.944.82.02 1.437-.396 2.078-.792.652-.472 1.26-1.096 2.025-1.29.477-.187 1.044-.087 1.521-.284.539-.11.931-.574 1.35-.955.459-.396 1.006-.627 1.62-.6.545.093.852-.43 1.221-.76.618-.58 1.466-.645 2.192-.985.524-.179.945-.557 1.425-.82.463-.209 1.104-.24 1.575-.056.316.155.623.287.886.495l2.23 1.934c.038.065.12.124.188.18.623.797 1.29 1.58 1.8 2.43.17.31.242.635.316.966.102 1.3.45 2.445.863 3.594.114.182.316.296.442.483.348.502.576 1.15 1.138 1.501l.343.17c.005.024.023.08 0 .114l-.059.05c-.682.126-1.2-.328-1.557-.84-.22-.438-.515-.945-1.01-1.13-.017-.01-.032.03-.06.045.06.155.21.28.292.436.178.32.354.666.445.988.093.36.488.64.793.841l.45.232c.059.038.065.132.018.187l-.067.033c-.735.023-1.4-.229-1.903-.792-.128-.14-.28-.27-.462-.27-.33.305-.653.61-1.106.637-.445-.08-.966-.09-1.384.096-.37.132-.75.305-1.174.314-.19 0-.416-.094-.48-.29-.012-.246-.187-.537-.03-.789l.279-.428c0-.07-.038-.102-.1-.12-.117-.01-.307.194-.35-.026.028-.446.441-.698.728-1.005.064-.35.193-.657.433-.933a.17.17 0 0 0-.076-.096c-.357.053-.708.15-1.098.15-.301.17-.679.29-1.03.17-.087-.06-.058-.144-.032-.212.378-.527.527-1.216.419-1.884-.036-.03-.088-.109-.147-.1-.067 0-.126.08-.143.126-.103.618-.17 1.102-.483 1.627-.24.263-.632.255-.951.36-.076.035-.167.112-.158.211-.018.208.137.375.222.557l.72 1.36c.024.375-.14.748-.216 1.08.046.06.09.028.131.008.264-.247.425-.552.521-.877.027-.155-.032-.322-.076-.428l-.734-1.536c.05-.096.163-.079.257-.11.179-.01.313.09.477.131.173.466.345.935.664 1.342.077.24.147.575-.017.81-.152.34-.33.624-.544.94-.179.194-.475.185-.735.205h-.225c-.647.372-1.34.595-2.034.812-.313.144-.673.041-.904-.176-.25-.193-.352-.492-.516-.74-.184-.256-.488-.036-.705-.168-.178-.326-.369-.648-.541-.965-.012-.085 0-.175.082-.228.234-.09.512-.1.778-.132.266-.012.506.032.685.217.322.407.454.94.954 1.204.386.036.732-.096 1.045-.263.199-.118.412-.293.412-.546-.026-.492-.348-.896-.743-1.18-.418-.22-.854-.552-1.153-.942-.143-.21-.193-.474-.278-.727-.038-.043-.17-.076-.225-.043-.155.167-.02.266-.006.44.023.12 0 .26-.073.374-.232.185-.454.118-.758.13-.612-.05-1.121-.097-1.765-.056-.606.044-1.449.384-1.908-.24-.214-.593-.032-1.305.079-1.897 0-.076-.111-.132-.164-.132-.055-.02-.196.023-.208.076-.149.583-.199 1.24-.333 1.864-.229.54-.589.976-1.124 1.272-.48.255-1.018.34-1.59.384-1.03.012-2.004.238-2.653 1.146-.036.091-.135.288-.109.41.047.03.109.062.152.03.717-.826 1.64-1.149 2.664-1.114 1.378 0 1.91-.088 2.595-1.055.153-.185.264-.396.41-.604.114-.02.202.132.263.208.03.3-.216.513-.307.771-.134.285-.27.628-.565.777-.333.073-.608.305-.898.495-.304.141-.679.208-1.036.112-.454-.09-1.057-.214-1.495 0-.223.137-.401.395-.612.542-.325.132-.58.4-.948.387-.25-.047-.55-.217-.758.012-.272.258-.351.7-.694.873-.407.223-.837-.012-1.252-.056.067-.419.117-.83.386-1.128a.6.6 0 0 0 .415-.164c.173-.14.299-.35.407-.528.349-.23.761-.4.98-.8.17-.366.185-.71.457-1.026l.144-.088.74-.047c.298-.12.582-.28.854-.5a.46.46 0 0 0 .082-.353c-.131-.378-.251-.633-.336-1.02-.1-.416-.038-.8-.064-1.25-.036-.048-.056-.104-.132-.115-.48.09-.963.25-1.501.158-.735-.09-1.502-.586-1.765-1.354-.252-.672-.19-1.6.27-2.117.45-.574 1.009-1.005 1.538-1.453.085-.08.097-.167.106-.267-.003-.117-.1-.205-.2-.252-.33-.073-.707.032-1.038-.106-.565-.222-1.019-.78-1.083-1.398a1.1 1.1 0 0 1 .167-.73c.366.197.688.525 1.1.648m36.423.082c.299.208.422.62.793.715.588.132 1.194.273 1.744.557.395.211.752.507 1.08.821.334.167.738.158 1.1.29.51.132.937.548 1.397.856.605.498 1.466.425 2.139.742 1.103.375 1.99 1.263 3.002 1.773.53.3 1.314.422 1.844.082.351-.255.577-.592.497-1.067-.196-1.152-1.419-1.773-2.013-2.74a1.37 1.37 0 0 1-.135-.807c.22-.574.811-.87 1.297-1.084.39-.19.866-.158 1.24-.375.138-.076.235-.208.337-.308.088 0 .085.1.103.155.108.686-.012 1.39-.58 1.788-.225.164-.483.214-.746.3-.208.09-.65-.106-.632.301.053.167.222.314.366.45.763.655 1.463 1.5 1.55 2.53.039.792-.485 1.48-1.152 1.81-.474.205-1.11.281-1.636.13-.14-.016-.351-.166-.463.028-.026.22.117.387.123.615.053.36.044.844-.073 1.193-.05.3-.333.625-.076.932.249.387.74.264 1.153.332.22.055.29.307.354.483.073.208.09.47.176.645-.006.416.456.583.685.868.278.301.512.85 1 .82.156.352.252.666.305 1.052l-.065.068c-.392-.015-.91.108-1.194-.179-.33-.229-.441-.853-.916-.698-.22.17-.518.238-.775.115-.234-.073-.413-.305-.623-.43-.653-.51-1.522-.76-2.386-.576-.482.144-.875-.208-1.267-.448-.509-.232-.655-.8-.76-1.293l-.1-.603c0-.059.044-.118.1-.138l.081.02c.372.883.73 1.43 1.604 1.741.729.308 1.35-.064 2.037.065.69.085 1.238.548 1.759.98.055.005.088-.05.1-.08l.002-.047c-.614-.82-1.48-1.38-2.502-1.302-.852.176-1.683-.11-2.171-.855-.255-.428-.475-.745-.536-1.237a10 10 0 0 0-.375-1.712c-.046-.04-.158-.094-.225-.053l-.111.088c.096.548.354 1.193.16 1.785-.137.437-.584.607-.991.633-.427.027-.8-.026-1.226-.026-.992-.038-1.788.267-2.819.161.088-.255.243-.445.15-.727-.035-.058-.158-.058-.22-.04-.184.12-.164.374-.28.536-.22.372-.621.691-1.043.776-.286.244-.567.57-.801.836-.103.1-.103.252-.068.386.205.502.758.566 1.2.698.24.02.44-.056.541-.264.188-.31.223-.82.67-.867h.963c.068.02.14.076.173.152l-.04.155c-.209.267-.293.604-.577.8-.158.053-.366-.014-.466.138-.064.343-.146.71-.468.894-.246.214-.609.11-.872.02-.506-.204-1.062-.304-1.569-.47-.225-.065-.316-.353-.547-.405-.208-.077-.453.12-.635-.088-.129-.25-.17-.428-.234-.713a2 2 0 0 1-.158-.548c-.044-.164.006-.284.061-.442l.691-1.322c.067-.076.12-.16.205-.208.167.047.351.132.5.217l-.02.093-.729 1.167c-.164.375.009.782.164 1.1.035.017.05.087.085.052-.012-.229-.038-.455.012-.7.044-.218.178-.437.304-.637l.58-.88a.65.65 0 0 0-.039-.494c-.257-.285-.623-.343-.834-.695-.465-.648-.386-1.4-.447-2.245 0-.056-.103-.15-.167-.18-.065-.017-.182.063-.217.104-.149.524-.047 1.192.073 1.661.1.387.246.74.401 1.085.02.08-.023.144-.079.158-.368.03-.758 0-1.135-.044-.51-.082-.858-.486-1.267-.79-.035-.036-.091.02-.126.063.12.572.72.9.91 1.437.132.416.518.744.615 1.195a.33.33 0 0 1-.106.185c-.143.018-.278-.064-.4.012-.024.24.134.504.029.747-.138.214-.328.47-.586.478-.489-.185-.971-.396-1.46-.548-.36-.032-.735.026-1.065.07-.31-.082-.545-.363-.79-.56-.08-.026-.15-.032-.211.033-.553.565-1.15 1.19-1.976 1.15-.046-.013-.081-.066-.087-.113l.006-.064c.368-.329.793-.69.95-1.15.109-.395.454-.68.565-1.063.018-.076-.032-.1-.079-.112l-.096.047c-.398.437-.711.9-.998 1.37-.293.33-.746.515-1.197.392-.056-.044-.056-.117-.023-.173 1.7-1.085 1.899-3.02 2.37-4.766.34-1.16.568-2.365 1.46-3.31 1.32-1.488 2.974-2.39 4.405-3.692.216-.2.447-.387.72-.416.681-.056 1.226.237 1.73.653m-23.123 11.337c.012.13.205.261.076.367-.222.18-.48.3-.76.255-.217-.167-.209-.507-.402-.727-.044-.15-.29-.16-.245-.346l.079-.056c.301-.008.608-.008.907-.067.31.023.21.393.345.574m24.14-.255a4.7 4.7 0 0 1-.207.79c-.091.178-.325.116-.486.096-.173-.068-.442-.085-.465-.326-.02-.23.085-.46.19-.627.257-.044.55.012.805-.02a.123.123 0 0 1 .164.087m-37.878.35c-.167.287-.351.618-.632.788a.5.5 0 0 1-.354-.02c-.059-.054-.17-.133-.17-.232.02-.097-.011-.238.073-.314.229-.147.451-.302.653-.472.061-.026.155-.058.205-.012.085.062.184.15.225.261m51.088-.132c.222.208.509.36.687.616.018.135-.044.231-.114.328-.088.065-.187.14-.328.14a.53.53 0 0 1-.345-.207c-.126-.208-.316-.402-.377-.645.1-.155.28-.384.477-.232m-52.302 1.313v.112c-.132.316-.217.744-.328 1.14-.258-.044-.454-.135-.658-.196-.05-.059-.012-.12 0-.2.245-.22.18-.5.234-.82.038-.165.193-.317.342-.405.193.041.31.24.41.37m53.698-.02c.134.222.081.527.128.746.03.162.24.305.132.481l-.6.202c-.108.006-.073-.135-.1-.202a10 10 0 0 0-.263-.964c-.023-.2.17-.346.307-.46.156-.044.267.114.396.196"/><path fill="#FFF" d="m151.94 10.694-.006.02-.011.01c-.038.037-.1.058-.144.023l-.023-.024v-.02a9 9 0 0 0-.307-1.188c-.024-.038-.053-.09-.091-.134-.038-.059-.067-.112-.105-.167-.077-.13-.115-.252-.041-.414l.011-.023a.29.29 0 0 1 .287-.056l.032.02c.164.112.267.303.337.455.199.434.187 1.038.061 1.498m4.76 3.804c-.018.02-.023.044-.03.076-.008.032-.02.053-.02.085-.023.067-.055.126-.152.155-.1.02-.184-.044-.181-.143-.01-.13-.018-.264-.033-.384a1 1 0 0 0-.117-.329c-.044-.029-.085-.1-.134-.158a2 2 0 0 0-.135-.158c-.1-.085-.19-.164-.298-.164a.5.5 0 0 0-.22.164c-.026.032-.073.076-.096.135l-.088.105c-.03.065-.114.047-.126.047l-.026-.023-.015-.024c-.062-.164-.026-.308.023-.437.053-.12.13-.23.176-.35l.009-.034a1 1 0 0 0 .085-.13c.011-.063.046-.142.058-.21.073-.14.184-.249.41-.152.131.065.213.185.284.3q.044.077.093.17.047.07.097.131c.33.363.547.788.436 1.328m-1.17 2.661-.006.01h-.003a1.5 1.5 0 0 1-.603.065h-.009c-.023-.008-.032-.008-.05-.023a.1.1 0 0 1-.055-.02c-.024-.033-.062-.074-.032-.144.093-.27.354-.557.652-.625h.073c.012 0 .044 0 .082.012a.22.22 0 0 1 .123.147c.006.173.006.434-.172.577m14.8-8.729a.3.3 0 0 1-.05.086l-.04.058c-.205.217-.419.41-.615.61-.199.21-.398.407-.524.636-.102.14-.184.308-.26.47-.023.057-.082.066-.132.057l-.026-.014-.018-.032a1 1 0 0 1-.005-.387c.02-.115.055-.247.099-.358.199-.557.647-1.084 1.112-1.436.088-.062.363-.117.442.088.032.067.032.15.018.223m-3.86 5.421c.02.04.02.076.02.105a.2.2 0 0 0-.032.103c-.032.044-.055.085-.1.108-.04.02-.099.035-.145-.01a.23.23 0 0 1-.132-.098.3.3 0 0 1-.047-.065l-.026-.055c-.053-.082-.085-.123-.164-.123-.07 0-.14.035-.196.076-.032.035-.056.047-.085.076-.035.018-.07.035-.108.064l-.19.17c-.068.05-.138.118-.19.18-.12.125-.203.254-.226.41-.02.04-.024.08-.032.096 0 .044-.01.068-.01.112-.02.064-.04.155-.125.196-.111.044-.225-.04-.225-.14a1.48 1.48 0 0 1 .436-1.232c.152-.126.28-.266.404-.433.14-.167.257-.343.386-.487l.03-.018c.178-.044.298.11.362.21.164.227.284.48.395.755m-.211 3.24a.3.3 0 0 1-.003.255l-.01.02-.01.015c-.074.053-.162.053-.247.053-.09 0-.17-.012-.248-.024h-.01v-.01c-.21-.118-.24-.36-.26-.558 0-.056.012-.132.073-.19l.027-.006h.006c.205 0 .433.046.582.237v.015c.032.061.073.13.1.193"/><path fill="#001D46" d="M136.766 39.632V30.85c0-.366.325-.694.694-.694h38.632s1.218-.185 1.724 1.24l15.744 46.776-36.788-14.186 3.146-2.383c.36-.308 1.518-.689 2.376-.663.319 0 .591.036.743.085l15.58 4.523c.44.126.885.196 1.338.196.81.012 1.753-.263 2.447-.952.7-.683.995-1.642.98-2.453 0-.516-.09-1.015-.258-1.504l-4.181-12.43c-.674-2.023-2.567-3.339-4.59-3.327-.617 0-1.266.117-1.893.38l-4.995 2.055c-.515.223-1.654.428-2.634.42-.573 0-1.115-.065-1.428-.15l-25.49-6.662s-1.19-.378-1.147-1.49zm.226 5.466 25.316 6.906c.817.21 1.657.287 2.523.287 1.472-.009 2.956-.214 4.284-.745l5.02-2.063a.7.7 0 0 1 .219-.047c.202.012.366.097.462.364l3.772 11.2-14.33-4.157a7 7 0 0 0-1.964-.264c-1.762.024-3.52.47-4.999 1.545l-3.985 3.013c-.908.668-1.7 1.738-1.707 3.11.003 1.758 1.344 2.98 2.623 3.43l39.413 15.196c.53.203 1.074.332 1.665.335h.044c.735 0 1.63-.27 2.271-.933.662-.674.902-1.57.893-2.303a4.8 4.8 0 0 0-.266-1.516l-16.307-48.453c-.945-2.506-3.175-4.109-5.847-4.203H137.46a5.05 5.05 0 0 0-5.048 5.05v9.4l-20.105.02q-3.209 0-3.208-1.772c0-1.185.44-2.893 1.326-5.133q1.328-3.363 1.329-5.135-.002-2.43-3.418-2.43H94.092l-1.357 4.391h3.5l-3.009 10.162H75.8c-2.915-.026-4.972-.047-6.125-.065-1.662-.023-1.24-1.11-1.24-1.11L72.449 25.8h-4.62l-3.91 13.254c-.097.323-.161.675-.352 1.217H40.842c-1.32.02-.904-.742-.904-.742.15-.346 3.17-6.99 3.69-8.558q.432-1.297.434-2.287c0-1.91-1.376-2.866-4.118-2.866q-.413.001-1.255.04c-.562.027-.98.045-1.256.045q3.994-2.143 5.99-3.198 3.827-2.123 6.012-4.452 2.716-2.908 2.715-6.205c0-4.869-3.204-7.295-9.613-7.295H4.457l-1.83 4.384h39.396c1.759 0 3 .162 3.728.478q1.73.738 1.73 2.984-.001 2.692-4.396 5.264-5.408 3.04-8.144 4.487c-2.92 1.65-4.381 3.195-4.381 4.643q-.002 3.051 5.308 3.051c.387 0 .954-.026 1.71-.073q1.133-.07 1.706-.07l-3.729 8.576c-.442.973-.617 1.803-.617 2.503 0 1.181.644 2.122 1.647 2.793.875.592 1.935.886 3.17.886H96.53l4.349-14.468h5.932q-1.134 3.255-1.498 4.408c-.595 1.803-.887 3.342-.887 4.622q0 2.986 2.695 4.368 2.078 1.069 5.35 1.07h22.844l1.677.44zm-123.62-.44h4.594l11.847-32.733h-4.639L13.372 44.66z"/><path fill="#9C9D9D" d="m13.051 53.251-1.902 3.544h2.33zm-2.423 4.517-.696 1.31h-1.37l3.723-6.83h1.931l.86 6.83h-1.34l-.164-1.31zM29.901 59.079h-1.286l.787-3.728c.102-.472.143-.625.37-1.516l.13-.5h-.03l-.257.47c-.48.9-.614 1.135-.775 1.423l-2.325 3.85H25.34l-.703-3.82a26 26 0 0 1-.184-1.423l-.053-.471h-.04c-.194 1.25-.246 1.497-.337 1.987l-.799 3.728h-1.288l1.452-6.832h2.107l.541 3.165c.041.206.135.94.237 1.897h.038l.258-.472c.45-.87.582-1.108.758-1.416l1.882-3.174h2.145zm21.123-4.834c.061-.276.07-.39.07-.522 0-.4-.234-.501-1.132-.501-.89 0-1.197.082-1.414.357-.173.214-.284.613-.284.973 0 .238.08.358.305.43.163.05.163.05 1.27.12.878.054 1.132.086 1.46.198.421.143.664.513.664.982 0 .586-.304 1.67-.57 2.069-.422.616-1.042.788-2.824.788-1.145 0-1.554-.07-1.94-.345-.229-.165-.38-.505-.38-.842 0-.296.02-.492.134-1.034h1.255c-.07.349-.09.48-.09.624 0 .185.07.349.175.422.16.103.357.123 1.276.123.758 0 .983-.053 1.23-.278.192-.173.385-.748.385-1.126 0-.217-.07-.34-.246-.41-.152-.062-.152-.062-1.267-.135-1.156-.07-1.37-.111-1.685-.284a1.02 1.02 0 0 1-.513-.903c0-.768.296-1.73.665-2.128.43-.484 1.074-.636 2.598-.636 1.095 0 1.513.082 1.882.349.223.173.357.5.357.88 0 .245-.032.43-.123.829h-1.257zm11.073 1.505c.848 0 1.135-.09 1.35-.46.154-.246.335-1.047.335-1.413 0-.472-.143-.545-1.04-.545h-1.608l-.51 2.418zm-2.034-3.503h2.76c1.123 0 1.237.012 1.565.144.468.205.746.636.746 1.199 0 .469-.155 1.248-.357 1.873-.298.87-.9 1.342-1.782 1.383-.152.009-.316.02-1.083.03h-1.52l-.475 2.204h-1.309zm12.143 6.832h-1.308l1.452-6.832h1.311zm9.5-3.974h3.181l-.205.964h-3.169l-.41 1.923h3.386l-.237 1.087h-4.694l1.454-6.832h4.662l-.237 1.087h-3.354zm11.337 2.826h3.181l-.245 1.149h-4.49l1.452-6.832h1.311zm13.6-2.815c.675 0 .86-.041 1.073-.226.153-.143.226-.287.308-.574.04-.182.082-.42.082-.534 0-.366-.144-.448-.82-.448h-1.85l-.38 1.782zm-.776 2.875c.898 0 1.165-.038 1.4-.234.154-.123.236-.276.306-.583.05-.226.094-.47.094-.613 0-.217-.094-.35-.287-.41-.123-.053-.316-.062-.87-.062h-1.655l-.4 1.902h1.413zm-1.504-5.744h3.365c.46 0 .714.02.951.082.468.102.776.513.776 1.034 0 .616-.234 1.425-.5 1.72q-.289.341-.902.46l-.009.033c.214.03.307.062.427.112.308.143.483.45.483.84 0 .707-.298 1.598-.655 2-.349.375-.94.55-1.838.55h-3.55zm13.341 2.858h3.181l-.205.964h-3.169l-.41 1.923h3.386l-.237 1.087h-4.694l1.454-6.832h4.662l-.237 1.087h-3.354zm13.64.583c.623 0 .962-.164 1.164-.571.105-.196.278-.956.278-1.22 0-.4-.217-.524-.86-.524h-1.923l-.489 2.315zm-2.403-3.44h3.345c.664 0 1.082.08 1.357.266.34.214.521.575.521.994 0 .653-.295 1.72-.58 2.13-.227.317-.523.46-1.155.572l-.012.053c.603.04.93.358.93.9 0 .135-.008.205-.06.43l-.308 1.487h-1.329l.267-1.231c.05-.255.061-.317.061-.46 0-.42-.237-.584-.869-.584h-1.832l-.48 2.275h-1.308l1.452-6.833zm17.78 3.206c-.143.84-.357 1.803-.5 2.233-.226.695-.705 1.155-1.402 1.33q-.506.124-1.902.124c-1.074 0-1.534-.09-1.91-.37-.37-.266-.575-.747-.575-1.321 0-.234.07-.715.176-1.187.038-.152.09-.42.16-.76.33-1.515.525-2.036.964-2.537.336-.381.807-.616 1.398-.72.246-.028.86-.06 1.525-.06 1.28 0 1.607.053 2.014.337.245.176.4.525.4.932 0 .246-.02.43-.102.84h-1.32c.041-.236.05-.327.05-.46 0-.471-.234-.553-1.49-.553-1.36 0-1.668.255-1.975 1.618-.328 1.474-.448 2.15-.448 2.427 0 .583.296.718 1.563.718 1.35 0 1.636-.246 1.882-1.618h-1.718l.205-.973z"/></g></svg>