<svg xmlns="http://www.w3.org/2000/svg" xmlns:xlink="http://www.w3.org/1999/xlink" width="1273.507" height="899.33447"><defs><filter id="n" width="1.0666443" height="1.3669105" x="-0.033322144" y="-0.18345523" color-interpolation-filters="sRGB"><feGaussianBlur stdDeviation="2.6037266"/></filter><filter id="c" width="1.0731637" height="1.3334768" x="-0.036581911" y="-0.16673841" color-interpolation-filters="sRGB"><feGaussianBlur stdDeviation="4.5896484"/></filter><filter id="l" width="1.0566483" height="1.3144139" x="-0.028324099" y="-0.15720694" color-interpolation-filters="sRGB"><feGaussianBlur stdDeviation="11.368871"/></filter><filter id="t" width="1.066838" height="1.3611482" x="-0.033418998" y="-0.1805741" color-interpolation-filters="sRGB"><feGaussianBlur stdDeviation="0.68765424"/></filter><filter id="x" width="1.0651017" height="1.4219556" x="-0.032550856" y="-0.21097778" color-interpolation-filters="sRGB"><feGaussianBlur stdDeviation="0.44503125"/></filter><filter id="v" color-interpolation-filters="sRGB"><feGaussianBlur stdDeviation="0.15805729"/></filter><filter id="z" color-interpolation-filters="sRGB"><feGaussianBlur stdDeviation="0.18036326"/></filter><filter id="w" width="1.0650563" height="1.4238752" x="-0.032528128" y="-0.21193761" color-interpolation-filters="sRGB"><feGaussianBlur stdDeviation="0.44429629"/></filter><filter id="B" color-interpolation-filters="sRGB"><feGaussianBlur stdDeviation="0.17418432"/></filter><filter id="C" width="1.0650563" height="1.4238752" x="-0.032528128" y="-0.21193761" color-interpolation-filters="sRGB"><feGaussianBlur stdDeviation="0.44429629"/></filter><clipPath id="o" clipPathUnits="userSpaceOnUse"><path d="M-335.21 101.794H938.297v900.719H-335.21z" style="fill:none;stroke:#000;stroke-opacity:1"/></clipPath><clipPath id="g" clipPathUnits="userSpaceOnUse"><path d="M-335.21 101.794H938.297v900.719H-335.21z" style="fill:none;stroke:#000;stroke-opacity:1"/></clipPath><pattern xlink:href="#a" id="p" patternTransform="translate(-1645.844 376.076)scale(.77603)"/><pattern id="a" width="10.793857" height="10.773841" patternTransform="rotate(-136.512 978.448 137.465)scale(.77603)" patternUnits="userSpaceOnUse"><path d="M1025.535 1215.281h18.172v18.096h-18.172z" style="opacity:1;fill:#000;fill-opacity:1;stroke:none;stroke-width:.5;stroke-linecap:round;stroke-linejoin:round;stroke-miterlimit:4;stroke-dasharray:none;stroke-dashoffset:0;stroke-opacity:1" transform="matrix(.5879 .0061 -.0061 .5879 -595.38 -720.708)"/><path d="M1025.535 1215.281h9.074v9.075h-9.074zM1034.641 1224.344h9.075v9.075h-9.075z" style="opacity:1;fill:#fff;fill-opacity:1;stroke:none;stroke-width:.5;stroke-linecap:round;stroke-linejoin:round;stroke-miterlimit:4;stroke-dasharray:none;stroke-dashoffset:0;stroke-opacity:1" transform="matrix(.5879 .0061 -.0061 .5879 -595.38 -720.708)"/></pattern></defs><g transform="translate(335.21 -101.794)"><use xlink:href="#b" width="1273.507" height="899.33447" style="stroke:#fff;stroke-width:10;stroke-miterlimit:4;stroke-dasharray:none;stroke-opacity:1;filter:url(#c)"/><use xlink:href="#d" width="744.09448" height="1052.3622" style="stroke:#fff;stroke-width:10;stroke-miterlimit:4;stroke-dasharray:none;stroke-opacity:1;filter:url(#c)"/><use xlink:href="#e" width="744.09448" height="1052.3622" style="stroke:#fff;stroke-width:20;stroke-miterlimit:4;stroke-dasharray:none;stroke-opacity:1;filter:url(#c)"/><use xlink:href="#f" width="744.09448" height="1052.3622" clip-path="url(#g)" style="stroke:#fff;stroke-width:25;stroke-miterlimit:4;stroke-dasharray:none;stroke-opacity:1;filter:url(#c)"/><use xlink:href="#h" width="744.09448" height="1052.3622" style="stroke:#fff;stroke-width:20;stroke-miterlimit:4;stroke-dasharray:none;stroke-opacity:1;filter:url(#c)"/><use xlink:href="#i" width="744.09448" height="1052.3622" style="stroke:#fff;stroke-width:20;stroke-miterlimit:4;stroke-dasharray:none;stroke-opacity:1;filter:url(#c)"/><use xlink:href="#j" width="744.09448" height="1052.3622" style="stroke:#fff;stroke-width:20;stroke-miterlimit:4;stroke-dasharray:none;stroke-opacity:1;filter:url(#c)"/><use xlink:href="#k" width="744.09448" height="1052.3622" style="stroke:#fff;stroke-width:20;stroke-miterlimit:4;stroke-dasharray:none;stroke-opacity:1;filter:url(#l)"/><use xlink:href="#m" width="744.09448" height="1052.3622" style="stroke:#fff;stroke-width:20;stroke-miterlimit:4;stroke-dasharray:none;stroke-opacity:1;filter:url(#n)"/><path id="e" d="M158.498 959.774c-128.157.344-256.317-.596-384.475-.941-27.096-.073-55.885 2.782-81.289-.314-3.785-.461-5.29-6.63-6.277-10.357-.897-3.387-1.026-7.96.628-10.985 2.635-4.821 8.36-8.186 12.24-12.555 13.591-15.3 27.978-30.306 40.174-46.45 2.346-3.106 3.203-7.465 3.452-11.3.274-4.22-.45-8.789-1.883-12.867-9.553-27.203-21.834-53.685-31.072-80.976-2.165-6.397-3.098-13.357-3.138-20.086-.064-10.534 1.574-21.167 2.824-31.7 3.667-30.896 7.905-61.731 11.927-92.588 8.741-67.067 17.318-134.156 26.364-201.182 8.32-61.655 17.055-123.256 25.736-184.862 2.199-15.603 3.81-31.362 6.905-46.764 1.404-6.986 2.705-15.113 6.591-20.401 2.495-3.396 8.185-4.394 12.554-5.65 4.733-1.36 9.908-2.645 14.752-2.197 6.455.598 13.114 2.744 19.145 5.336 5.896 2.534 11.704 5.943 16.634 10.043 5.636 4.688 10.648 10.416 15.065 16.321 5.836 7.8 10.008 16.856 15.693 24.795 5.404 7.545 11.1 15.006 17.576 21.656 16.854 17.307 34.438 34.038 52.414 50.217 18.64 16.776 37.122 34.397 57.436 48.648 7.724 5.418 17.685 7.186 26.678 10.357 10.885 3.838 22.514 6.046 32.955 10.671 5.147 2.28 10.009 5.922 13.81 10.044 4.882 5.294 8.929 11.752 12.24 18.203 2.757 5.371 5.246 11.31 5.963 17.262 1.061 8.8.186 18.047-.627 26.992-.966 10.618-3.6 21.088-4.708 31.7-.88 8.428-2.375 17.162-1.256 25.422 1.078 7.956 3.823 16.32 7.847 23.225 3.718 6.382 9.713 11.673 15.379 16.635 12.014 10.521 24.697 20.433 37.663 29.816 26.789 19.387 54.755 37.178 81.602 56.495 16.047 11.545 32.734 21.52 47.55 34.367 3.283 2.846 6.879 8.061 7.846 12.083 1.02 4.243-.314 10.8-2.354 14.438-1.83 3.266-6.641 5.142-10.357 6.905-4.444 2.108-9.28 2.945-14.124 3.452-6.14.643-15.088-.258-21.342-.941-98.993-10.825-195.477-23.543-294.398-32.328-9.465-.84-19.23 1.678-28.247 4.394-7.304 2.201-14.545 5.885-20.714 10.358-6.385 4.629-11.935 10.762-16.949 16.948-7.96 9.82-14.885 20.56-21.97 31.072-2.645 3.925-6.183 7.967-7.218 12.24-.638 2.632.31 6.676 2.197 8.474 2.612 2.491 7.3 3.913 11.299 4.394 37.744 4.54 75.922 7.585 113.93 10.671 10.954.89 21.962 1.244 32.955 1.256 184.75.197 369.74 1.195 554.271-.628 6.086-.06 12.474-2.082 17.576-5.022 4.523-2.605 8.953-6.92 11.299-11.612 3.826-7.653 5.884-16.776 7.219-25.423 1.49-9.661 2.233-19.832 1.255-29.502-.8-7.906-3.852-15.68-6.591-23.226-2.806-7.729-6.386-15.222-10.043-22.597-2.62-5.284-5.287-10.665-8.788-15.38-4.659-6.27-10.06-12.127-15.693-17.575-7.13-6.897-14.399-13.945-22.598-19.46-9.69-6.517-20.183-12.348-31.072-16.634-18.614-7.327-38.325-12.032-57.436-18.204-7.776-2.511-16.072-4.065-23.225-7.846-9.273-4.902-18.093-11.3-26.05-18.204-7.84-6.801-15.317-14.523-21.343-22.911-4.645-6.468-7.82-14.158-10.67-21.656-3.95-10.392-7.03-21.214-9.73-32.014-1.799-7.195-3.856-14.632-3.766-21.97.12-9.82 1.45-20.07 4.393-29.502 5.74-18.396 13.99-36.18 21.657-53.984 10.85-25.195 20.494-51.392 33.896-75.012 5.534-9.753 14.293-17.945 22.912-25.108 7.493-6.228 16.312-12.422 25.422-15.065 7.838-2.274 17.254-.949 25.423.314 3.34.516 6.445 2.832 9.101 5.021 6.864 5.657 14.39 11.177 19.46 18.518 29.245 42.353 56.45 86.55 83.486 130.564 60.425 98.373 119.202 197.768 178.898 296.595 24.732 40.944 49.388 81.936 74.384 122.718 18.735 30.568 39.406 60.303 56.808 91.333 2.371 4.227 3.094 9.773 2.511 14.437-.672 5.38-1.785 12.773-6.277 15.693-16.432 10.68-37.212 18.201-56.494 25.108-8.756 3.137-18.269 4.904-27.62 5.022-222.589 2.811-445.466 3.169-668.201 3.766" style="fill:none"/><path id="d" d="M685.071 952.477c-24.611-.261-48.714-4.814-73.128-5.963-22.246-1.048-44.604.257-66.852-.628-11.962-.475-23.806-3.273-35.78-3.452-72.035-1.077-144.165-.36-216.247-.314-94.994.06-189.994.144-284.982.628-7.852.04-15.747.54-23.579 1.098-30.354 2.162-60.641 5.575-91.018 7.219-21.828 1.18-43.574 2.563-65.44 2.981" style="fill:none"/><path id="m" d="M-173.563 170.189c13.653 4.158 43.71 21.88 56.808 29.738 9.919 5.95 20.453 12.688 31.386 15.065 8.317 1.808 18.311.793 26.364-2.511 24.588-10.088 48.047-24.496 71.56-37.663 28.797-16.126 55.298-38.347 85.368-50.217 17.637-6.962 38.623-6.944 57.75-6.277 16.862.588 34.668 3.824 50.217 10.043 13.744 5.498 25.518 16.202 37.663 25.109 6.686 4.903 11.639 12.724 18.831 16.32 7.036 3.518 16.578 6.745 23.854 5.022 8.626-2.043 15.591-11.408 23.853-16.32 7.222-4.295 14.696-9.982 22.597-11.3 7.165-1.193 15.851.31 22.598 3.767 43.889 22.488 85.59 44.942 128.054 70.618 11.52 6.965 24.428 17.942 33.7 28.012" style="fill:none"/><path id="j" d="M29.385 353.089c-28.738-10.58-29.71-24.34-31.896-35.152-1.502-7.428.407-16.925 3.766-23.853 3.337-6.882 14.43-14.789 21.813-16.635 24.422-6.105 47.236-5.126 73.6-7.218 19.678-1.562 50.217-2.354 56.494-6.12 6.09-3.654 24.311-10.678 33.897-9.73 6.518.645 11.936 4.316 15.065 9.573 7.333 12.32 7.052 30.272 13.81 43.94 11.655 23.576 24.315 47.783 41.429 67.793 37.288 43.598 113.864 111.916 126.053 130.054" style="fill:none"/><path id="i" d="M195.847 257.441c17.183 9.233 32.793 38.035 61.516 51.708 11.742 5.59 30.01 8.848 40.173 3.766 9.924-4.962 13.666-22.442 20.087-33.896 9.063-16.166 14.024-36.181 26.364-48.962 11.095-11.491 31.523-13.746 43.94-23.853 5.578-4.54 9.814-13.439 10.044-20.087.189-5.487-5.859-10.88-8.788-16.32" style="fill:none"/><path id="h" d="M-288.591 707.276c1.621-11.194 11.05-19.236 16.163-17.732 30.458 8.958 61.938 26.2 92.902 41.429 13.53 6.654 27.985 13.339 47.706 16.634" style="fill:none"/><path id="k" d="M616.415 785.898c33.583.418 59.607 13.601 77.837 21.656 17.76 7.847 38.616 14.529 51.472 27.62 10.16 10.344 18.434 28.96 17.576 42.684-.816 13.058-11.439 29.293-22.598 37.663-17.297 12.973-41.178 19.82-62.771 26.364-19.836 6.01-40.837 8.906-61.516 11.298-29.957 3.466-60.26 4.185-90.39 6.278m-521.474 0c-25.109 0-112.86-6.215-147.67-23.854-15.753-7.982-32.731-17.893-42.684-31.385-8.878-12.035-15.823-31.332-13.81-45.196 1.754-12.081 14.305-24.74 25.109-32.64 17.234-12.605 38.524-21.731 59.005-28.876 15.508-5.41 29.031-9.938 48.334-10.2" style="fill:none"/><path id="f" d="m-119.266 787.456 1163.782-2.51" clip-path="url(#o)" style="fill:none"/><path id="b" d="M185.997 626.548c-4.977 7.37-10.89 22.719-14.86 30.437-1.199 2.332-1.503 5.698-.574 8.04 1.464 3.688 4.566 7.311 7.753 10.05 9.734 8.364 20.114 16.584 31.012 23.259 4.416 2.705 9.701 4.85 14.931 4.881 220.37 1.31 441.523 1.19 661.867-.861 5.925-.055 11.517-3.078 16.941-5.456 15.538-6.811 30.733-14.532 45.943-22.11 11.495-5.726 23.939-10.533 34.17-17.803 4.317-3.067 7.866-8.222 9.476-13.209 2.315-7.169 2.426-15.51 2.297-23.258-.158-9.481-1.56-19.047-3.158-28.427-1.37-8.04-3.331-16.05-5.743-23.833-1.8-5.808-3.606-11.943-6.892-16.942-3.319-5.05-7.88-9.727-12.921-13.208-17.547-12.12-35.65-23.63-53.983-34.745-12.296-7.454-22.856-15.134-35.203-22.504" style="fill:none" transform="translate(-335.21 101.794)"/><use xlink:href="#k" width="744.09448" height="1052.3622" style="stroke:#c8c8c8;stroke-width:15;stroke-linecap:butt;stroke-linejoin:miter;stroke-miterlimit:4;stroke-dasharray:none;stroke-opacity:1"/><use xlink:href="#m" width="744.09448" height="1052.3622" style="stroke:#c8c8c8;stroke-width:15;stroke-linecap:butt;stroke-linejoin:miter;stroke-miterlimit:4;stroke-dasharray:none;stroke-opacity:1"/><use xlink:href="#j" width="744.09448" height="1052.3622" style="stroke:#c8c8c8;stroke-width:15;stroke-linecap:butt;stroke-linejoin:miter;stroke-miterlimit:4;stroke-dasharray:none;stroke-opacity:1"/><use xlink:href="#i" width="744.09448" height="1052.3622" style="stroke:#c8c8c8;stroke-width:15;stroke-linecap:butt;stroke-linejoin:miter;stroke-miterlimit:4;stroke-dasharray:none;stroke-opacity:1"/><use xlink:href="#h" width="744.09448" height="1052.3622" style="stroke:#c8c8c8;stroke-width:15;stroke-linecap:butt;stroke-linejoin:miter;stroke-miterlimit:4;stroke-dasharray:none;stroke-opacity:1"/><use xlink:href="#f" width="744.09448" height="1052.3622" clip-path="url(#o)" style="stroke:gray;stroke-width:20;stroke-linecap:butt;stroke-linejoin:miter;stroke-miterlimit:4;stroke-dasharray:none;stroke-opacity:1"/><use xlink:href="#d" width="744.09448" height="1052.3622" style="stroke:#000;stroke-width:5;stroke-linecap:butt;stroke-linejoin:miter;stroke-miterlimit:4;stroke-dasharray:none;stroke-opacity:1"/><use xlink:href="#d" width="744.09448" height="1052.3622" style="stroke:#000;stroke-width:5;stroke-linecap:butt;stroke-linejoin:miter;stroke-miterlimit:4;stroke-dasharray:none;stroke-opacity:1"/><g style="display:inline" transform="rotate(136.332 1035.567 671.696)scale(1.28861)"><path d="M1695.937 1398.52h-24.481l12.24-21.2z" style="display:inline;fill:red;fill-opacity:1;stroke:#fff;stroke-width:.867217;stroke-linecap:round;stroke-linejoin:miter;stroke-miterlimit:4;stroke-dasharray:none;stroke-dashoffset:0;stroke-opacity:1" transform="matrix(-.35894 .36791 -1.11511 -1.08791 3617.859 1699.899)"/><rect width="13.041035" height="54.697575" x="-1620.8837" y="376.01733" ry="0" style="display:inline;fill:url(#p);fill-opacity:1;stroke:#000;stroke-width:.77603012;stroke-linecap:round;stroke-linejoin:round;stroke-miterlimit:4;stroke-dasharray:none;stroke-dashoffset:0;stroke-opacity:1" transform="rotate(-135.918)"/></g><g transform="matrix(1.98913 0 0 1.98913 1986.455 335.695)"><circle cx="-1148.5779" cy="262.27325" r="15.141329" style="fill:#fff;fill-opacity:1;fill-rule:evenodd;stroke:#000;stroke-width:1.04533446;stroke-linecap:round;stroke-linejoin:miter;stroke-miterlimit:4;stroke-dasharray:none;stroke-dashoffset:0;stroke-opacity:1" transform="matrix(.95238 0 0 .97143 -57.512 6.92)"/><text xml:space="preserve" x="-1151.3177" y="272.51166" style="color:#000;font-style:normal;font-variant:normal;font-weight:400;font-stretch:normal;font-size:32px;font-family:&quot;Times New Roman&quot;;text-align:center;writing-mode:lr-tb;text-anchor:middle;display:inline;overflow:visible;visibility:visible;fill:#000;fill-opacity:1;fill-rule:nonzero;stroke:none;stroke-width:1px;enable-background:accumulate"><tspan x="-1151.3177" y="272.51166">2</tspan></text></g><g transform="matrix(1.98913 0 0 1.98913 2043.962 227.507)"><circle cx="-1148.5779" cy="262.27325" r="15.141329" style="fill:#fff;fill-opacity:1;fill-rule:evenodd;stroke:#000;stroke-width:1.04533446;stroke-linecap:round;stroke-linejoin:miter;stroke-miterlimit:4;stroke-dasharray:none;stroke-dashoffset:0;stroke-opacity:1" transform="matrix(.95238 0 0 .97143 -57.512 6.92)"/><text xml:space="preserve" x="-1151.3177" y="272.51166" style="color:#000;font-style:normal;font-variant:normal;font-weight:400;font-stretch:normal;font-size:32px;font-family:&quot;Times New Roman&quot;;text-align:center;writing-mode:lr-tb;text-anchor:middle;display:inline;overflow:visible;visibility:visible;fill:#000;fill-opacity:1;fill-rule:nonzero;stroke:none;stroke-width:1px;enable-background:accumulate"><tspan x="-1151.3177" y="272.51166">3</tspan></text></g><g transform="matrix(1.98913 0 0 1.98913 2108.55 -306.812)"><circle cx="-1148.5779" cy="262.27325" r="15.141329" style="fill:#fff;fill-opacity:1;fill-rule:evenodd;stroke:#000;stroke-width:1.04533446;stroke-linecap:round;stroke-linejoin:miter;stroke-miterlimit:4;stroke-dasharray:none;stroke-dashoffset:0;stroke-opacity:1" transform="matrix(.95238 0 0 .97143 -57.512 6.92)"/><text xml:space="preserve" x="-1151.3177" y="272.51166" style="color:#000;font-style:normal;font-variant:normal;font-weight:400;font-stretch:normal;font-size:32px;font-family:&quot;Times New Roman&quot;;text-align:center;writing-mode:lr-tb;text-anchor:middle;display:inline;overflow:visible;visibility:visible;fill:#000;fill-opacity:1;fill-rule:nonzero;stroke:none;stroke-width:1px;enable-background:accumulate"><tspan x="-1151.3177" y="272.51166">4</tspan></text></g><g transform="matrix(1.98913 0 0 1.98913 2318.755 -217.563)"><circle cx="-1148.5779" cy="262.27325" r="15.141329" style="fill:#fff;fill-opacity:1;fill-rule:evenodd;stroke:#000;stroke-width:1.04533446;stroke-linecap:round;stroke-linejoin:miter;stroke-miterlimit:4;stroke-dasharray:none;stroke-dashoffset:0;stroke-opacity:1" transform="matrix(.95238 0 0 .97143 -57.512 6.92)"/><text xml:space="preserve" x="-1151.3177" y="272.51166" style="color:#000;font-style:normal;font-variant:normal;font-weight:400;font-stretch:normal;font-size:32px;font-family:&quot;Times New Roman&quot;;text-align:center;writing-mode:lr-tb;text-anchor:middle;display:inline;overflow:visible;visibility:visible;fill:#000;fill-opacity:1;fill-rule:nonzero;stroke:none;stroke-width:1px;enable-background:accumulate"><tspan x="-1151.3177" y="272.51166">5</tspan></text></g><g transform="matrix(1.98913 0 0 1.98913 2343.416 -110.7)"><circle cx="-1148.5779" cy="262.27325" r="15.141329" style="fill:#fff;fill-opacity:1;fill-rule:evenodd;stroke:#000;stroke-width:1.04533446;stroke-linecap:round;stroke-linejoin:miter;stroke-miterlimit:4;stroke-dasharray:none;stroke-dashoffset:0;stroke-opacity:1" transform="matrix(.95238 0 0 .97143 -57.512 6.92)"/><text xml:space="preserve" x="-1151.3177" y="272.51166" style="color:#000;font-style:normal;font-variant:normal;font-weight:400;font-stretch:normal;font-size:32px;font-family:&quot;Times New Roman&quot;;text-align:center;writing-mode:lr-tb;text-anchor:middle;display:inline;overflow:visible;visibility:visible;fill:#000;fill-opacity:1;fill-rule:nonzero;stroke:none;stroke-width:1px;enable-background:accumulate"><tspan x="-1151.3177" y="272.51166">6</tspan></text></g><g transform="matrix(1.98913 0 0 1.98913 2426.793 -28.497)"><circle cx="-1148.5779" cy="262.27325" r="15.141329" style="fill:#fff;fill-opacity:1;fill-rule:evenodd;stroke:#000;stroke-width:1.04533446;stroke-linecap:round;stroke-linejoin:miter;stroke-miterlimit:4;stroke-dasharray:none;stroke-dashoffset:0;stroke-opacity:1" transform="matrix(.95238 0 0 .97143 -57.512 6.92)"/><text xml:space="preserve" x="-1151.3177" y="272.51166" style="color:#000;font-style:normal;font-variant:normal;font-weight:400;font-stretch:normal;font-size:32px;font-family:&quot;Times New Roman&quot;;text-align:center;writing-mode:lr-tb;text-anchor:middle;display:inline;overflow:visible;visibility:visible;fill:#000;fill-opacity:1;fill-rule:nonzero;stroke:none;stroke-width:1px;enable-background:accumulate"><tspan x="-1151.3177" y="272.51166">7</tspan></text></g><g transform="matrix(1.98913 0 0 1.98913 2193.985 103.178)"><circle cx="-1148.5779" cy="262.27325" r="15.141329" style="fill:#fff;fill-opacity:1;fill-rule:evenodd;stroke:#000;stroke-width:1.04533446;stroke-linecap:round;stroke-linejoin:miter;stroke-miterlimit:4;stroke-dasharray:none;stroke-dashoffset:0;stroke-opacity:1" transform="matrix(.95238 0 0 .97143 -57.512 6.92)"/><text xml:space="preserve" x="-1151.3177" y="272.51166" style="color:#000;font-style:normal;font-variant:normal;font-weight:400;font-stretch:normal;font-size:32px;font-family:&quot;Times New Roman&quot;;text-align:center;writing-mode:lr-tb;text-anchor:middle;display:inline;overflow:visible;visibility:visible;fill:#000;fill-opacity:1;fill-rule:nonzero;stroke:none;stroke-width:1px;enable-background:accumulate"><tspan x="-1151.3177" y="272.51166">9</tspan></text></g><g transform="matrix(1.60226 0 0 1.60226 1955.148 -132.07)"><circle cx="-874.2215" cy="516.21692" r="17.295008" style="fill:#fff;fill-opacity:1;fill-rule:evenodd;stroke:#000;stroke-width:1.09359026;stroke-linecap:round;stroke-linejoin:miter;stroke-miterlimit:4;stroke-dasharray:none;stroke-dashoffset:0;stroke-opacity:1" transform="matrix(1.14141 0 0 1.14141 124.455 -75.09)"/><text xml:space="preserve" x="-874.69452" y="524.75018" style="color:#000;font-style:normal;font-variant:normal;font-weight:400;font-stretch:normal;font-size:32px;font-family:&quot;Times New Roman&quot;;text-align:center;writing-mode:lr-tb;text-anchor:middle;display:inline;overflow:visible;visibility:visible;fill:#000;fill-opacity:1;fill-rule:nonzero;stroke:none;stroke-width:1px;enable-background:accumulate"><tspan x="-874.69452" y="524.75018">11</tspan></text></g><g transform="matrix(1.60226 0 0 1.60226 1837.715 -341.1)"><circle cx="-874.2215" cy="516.21692" r="17.295008" style="fill:#fff;fill-opacity:1;fill-rule:evenodd;stroke:#000;stroke-width:1.09359026;stroke-linecap:round;stroke-linejoin:miter;stroke-miterlimit:4;stroke-dasharray:none;stroke-dashoffset:0;stroke-opacity:1" transform="matrix(1.14141 0 0 1.14141 124.455 -75.09)"/><text xml:space="preserve" x="-874.69452" y="524.75018" style="color:#000;font-style:normal;font-variant:normal;font-weight:400;font-stretch:normal;font-size:32px;font-family:&quot;Times New Roman&quot;;text-align:center;writing-mode:lr-tb;text-anchor:middle;display:inline;overflow:visible;visibility:visible;fill:#000;fill-opacity:1;fill-rule:nonzero;stroke:none;stroke-width:1px;enable-background:accumulate"><tspan x="-874.69452" y="524.75018">12</tspan></text></g><g transform="matrix(1.60226 0 0 1.60226 1878.817 -545.434)"><circle cx="-874.2215" cy="516.21692" r="17.295008" style="fill:#fff;fill-opacity:1;fill-rule:evenodd;stroke:#000;stroke-width:1.09359026;stroke-linecap:round;stroke-linejoin:miter;stroke-miterlimit:4;stroke-dasharray:none;stroke-dashoffset:0;stroke-opacity:1" transform="matrix(1.14141 0 0 1.14141 124.455 -75.09)"/><text xml:space="preserve" x="-874.69452" y="524.75018" style="color:#000;font-style:normal;font-variant:normal;font-weight:400;font-stretch:normal;font-size:32px;font-family:&quot;Times New Roman&quot;;text-align:center;writing-mode:lr-tb;text-anchor:middle;display:inline;overflow:visible;visibility:visible;fill:#000;fill-opacity:1;fill-rule:nonzero;stroke:none;stroke-width:1px;enable-background:accumulate"><tspan x="-874.69452" y="524.75018">13</tspan></text></g><g transform="translate(-1128.698 -614.794)"><use xlink:href="#r" width="744.09448" height="1052.3622" style="stroke:#fff;stroke-width:5;stroke-miterlimit:4;stroke-dasharray:none;stroke-opacity:1;filter:url(#n)" transform="translate(.111)"/><text xml:space="preserve" id="r" x="1371.9961" y="1457.7952" style="font-style:normal;font-variant:normal;font-weight:400;font-stretch:normal;font-size:32px;font-family:&quot;Times New Roman&quot;;text-align:center;writing-mode:lr-tb;text-anchor:middle;fill:#000;fill-opacity:1"><tspan x="1371.9961" y="1457.7952">1140 ft (347 m)</tspan></text><path d="M1192.293 1467.688v21h360v-21h-4v17h-85.344v-7.594h-4v7.594h-84.937v-13.063h-4v13.063h-85.063v-7.594h-4v7.594h-84.656v-17z" style="fill:#000;fill-opacity:1;fill-rule:evenodd;stroke:#fff;stroke-width:1.5;stroke-linecap:butt;stroke-linejoin:miter;stroke-miterlimit:4;stroke-dasharray:none;stroke-opacity:1"/></g><g style="display:inline"><text xml:space="preserve" x="2073.4658" y="969.73169" style="font-style:normal;font-weight:400;font-size:64px;font-family:&quot;Times New Roman&quot;;fill:#000;fill-opacity:1;stroke:#fff;stroke-width:.51137096px;stroke-linecap:butt;stroke-linejoin:miter;stroke-opacity:1" transform="matrix(1.95553 0 0 1.95553 -3397.742 -1471.709)"><tspan x="2073.4658" y="969.73169" style="stroke-width:.51137096">N</tspan></text><path d="m2127.457 953.45 52.574-15.335-10.446 11.742 12.284 9.804z" style="fill:red;fill-opacity:1;fill-rule:nonzero;stroke:#fff;stroke-width:.51137096;stroke-linecap:round;stroke-linejoin:round;stroke-miterlimit:4;stroke-dasharray:none;stroke-dashoffset:0;stroke-opacity:1" transform="matrix(1.95553 0 0 1.95553 -3397.742 -1471.709)"/></g><g transform="matrix(1.98913 0 0 1.98913 2076.519 383.357)"><circle cx="-1148.5779" cy="262.27325" r="15.141329" style="fill:#fff;fill-opacity:1;fill-rule:evenodd;stroke:#000;stroke-width:1.04533446;stroke-linecap:round;stroke-linejoin:miter;stroke-miterlimit:4;stroke-dasharray:none;stroke-dashoffset:0;stroke-opacity:1" transform="matrix(.95238 0 0 .97143 -57.512 6.92)"/><text xml:space="preserve" x="-1151.3177" y="272.51166" style="color:#000;font-style:normal;font-variant:normal;font-weight:400;font-stretch:normal;font-size:32px;font-family:&quot;Times New Roman&quot;;text-align:center;writing-mode:lr-tb;text-anchor:middle;display:inline;overflow:visible;visibility:visible;fill:#000;fill-opacity:1;fill-rule:nonzero;stroke:none;stroke-width:1px;enable-background:accumulate"><tspan x="-1151.3177" y="272.51166">1</tspan></text></g><path d="M659.499 465.714H574.07l42.714-73.983z" style="fill:#000;fill-opacity:1;stroke:#fff;stroke-width:2.43539071;stroke-miterlimit:4;stroke-dasharray:none;stroke-opacity:1" transform="matrix(-.1071 -.21983 .61985 -.302 -469.96 1194.986)"/><g transform="matrix(1.98913 0 0 1.98913 2482.517 120.411)"><circle cx="-1148.5779" cy="262.27325" r="15.141329" style="fill:#fff;fill-opacity:1;fill-rule:evenodd;stroke:#000;stroke-width:1.04533446;stroke-linecap:round;stroke-linejoin:miter;stroke-miterlimit:4;stroke-dasharray:none;stroke-dashoffset:0;stroke-opacity:1" transform="matrix(.95238 0 0 .97143 -57.512 6.92)"/><text xml:space="preserve" x="-1151.3177" y="272.51166" style="color:#000;font-style:normal;font-variant:normal;font-weight:400;font-stretch:normal;font-size:32px;font-family:&quot;Times New Roman&quot;;text-align:center;writing-mode:lr-tb;text-anchor:middle;display:inline;overflow:visible;visibility:visible;fill:#000;fill-opacity:1;fill-rule:nonzero;stroke:none;stroke-width:1px;enable-background:accumulate"><tspan x="-1151.3177" y="272.51166">8</tspan></text></g><path d="M659.499 465.714H574.07l42.714-73.983z" style="fill:#000;fill-opacity:1;stroke:#fff;stroke-width:2.43539071;stroke-miterlimit:4;stroke-dasharray:none;stroke-opacity:1" transform="matrix(.10241 -.22205 -.62612 -.28877 455.213 923.683)"/><g transform="matrix(1.60226 0 0 1.60226 1352.97 -112.297)"><circle cx="-874.2215" cy="516.21692" r="17.295008" style="fill:#fff;fill-opacity:1;fill-rule:evenodd;stroke:#000;stroke-width:1.09359026;stroke-linecap:round;stroke-linejoin:miter;stroke-miterlimit:4;stroke-dasharray:none;stroke-dashoffset:0;stroke-opacity:1" transform="matrix(1.14141 0 0 1.14141 124.455 -75.09)"/><text xml:space="preserve" x="-874.69452" y="524.75018" style="color:#000;font-style:normal;font-variant:normal;font-weight:400;font-stretch:normal;font-size:32px;font-family:&quot;Times New Roman&quot;;text-align:center;writing-mode:lr-tb;text-anchor:middle;display:inline;overflow:visible;visibility:visible;fill:#000;fill-opacity:1;fill-rule:nonzero;stroke:none;stroke-width:1px;enable-background:accumulate"><tspan x="-874.69452" y="524.75018">10</tspan></text></g><path d="M659.499 465.714H574.07l42.714-73.983z" style="fill:#000;fill-opacity:1;stroke:#fff;stroke-width:2.43539071;stroke-miterlimit:4;stroke-dasharray:none;stroke-opacity:1" transform="matrix(-.06605 -.23544 .66387 -.18624 -352.466 952.442)"/><g transform="matrix(1.60226 0 0 1.60226 2228.689 33.355)"><circle cx="-874.2215" cy="516.21692" r="17.295008" style="fill:#fff;fill-opacity:1;fill-rule:evenodd;stroke:#000;stroke-width:1.09359026;stroke-linecap:round;stroke-linejoin:miter;stroke-miterlimit:4;stroke-dasharray:none;stroke-dashoffset:0;stroke-opacity:1" transform="matrix(1.14141 0 0 1.14141 124.455 -75.09)"/><text xml:space="preserve" x="-874.69452" y="524.75018" style="color:#000;font-style:normal;font-variant:normal;font-weight:400;font-stretch:normal;font-size:32px;font-family:&quot;Times New Roman&quot;;text-align:center;writing-mode:lr-tb;text-anchor:middle;display:inline;overflow:visible;visibility:visible;fill:#000;fill-opacity:1;fill-rule:nonzero;stroke:none;stroke-width:1px;enable-background:accumulate"><tspan x="-874.69452" y="524.75018">14</tspan></text></g><path d="M659.499 465.714H574.07l42.714-73.983z" style="fill:#000;fill-opacity:1;stroke:#fff;stroke-width:2.43539071;stroke-miterlimit:4;stroke-dasharray:none;stroke-opacity:1" transform="matrix(-.15167 .1918 -.54084 -.42767 1207.621 961.11)"/><g transform="matrix(1.60226 0 0 1.60226 2160.45 72.288)"><circle cx="-874.2215" cy="516.21692" r="17.295008" style="fill:#fff;fill-opacity:1;fill-rule:evenodd;stroke:#000;stroke-width:1.09359026;stroke-linecap:round;stroke-linejoin:miter;stroke-miterlimit:4;stroke-dasharray:none;stroke-dashoffset:0;stroke-opacity:1" transform="matrix(1.14141 0 0 1.14141 124.455 -75.09)"/><text xml:space="preserve" x="-874.69452" y="524.75018" style="color:#000;font-style:normal;font-variant:normal;font-weight:400;font-stretch:normal;font-size:32px;font-family:&quot;Times New Roman&quot;;text-align:center;writing-mode:lr-tb;text-anchor:middle;display:inline;overflow:visible;visibility:visible;fill:#000;fill-opacity:1;fill-rule:nonzero;stroke:none;stroke-width:1px;enable-background:accumulate"><tspan x="-874.69452" y="524.75018">15</tspan></text></g><path d="M659.499 465.714H574.07l42.714-73.983z" style="fill:#000;fill-opacity:1;stroke:#fff;stroke-width:2.43539071;stroke-miterlimit:4;stroke-dasharray:none;stroke-opacity:1" transform="matrix(-.14215 .19897 -.56103 -.40082 1144.372 979.38)"/><use xlink:href="#s" width="744.09448" height="1052.3622" style="stroke:#fff;stroke-width:1.68277514;stroke-miterlimit:4;stroke-dasharray:none;stroke-opacity:1;filter:url(#t)"/><use xlink:href="#u" width="744.09448" height="1052.3622" style="stroke:#fff;stroke-width:1.68277514;stroke-miterlimit:4;stroke-dasharray:none;stroke-opacity:1;filter:url(#v)"/><text xml:space="preserve" id="u" x="729.22083" y="212.24716" style="color:#000;font-style:normal;font-variant:normal;font-weight:400;font-stretch:normal;font-size:32px;font-family:&quot;Times New Roman&quot;;text-align:center;writing-mode:lr-tb;text-anchor:middle;display:inline;overflow:visible;fill:#000;fill-opacity:1;fill-rule:nonzero;enable-background:accumulate"><tspan x="729.22083" y="212.24716">1</tspan></text><path d="M-1530.531-208.5v5.031h32.781v-5.031Z" style="color:#000;font-style:normal;font-variant:normal;font-weight:400;font-stretch:normal;font-size:medium;font-family:&quot;Bitstream Vera Sans&quot;;text-indent:0;text-decoration:none;text-decoration-line:none;letter-spacing:normal;word-spacing:normal;text-transform:none;writing-mode:lr-tb;direction:ltr;text-anchor:start;display:inline;overflow:visible;visibility:visible;fill:#000;fill-opacity:1;stroke:#fff;stroke-width:2.69244027;stroke-miterlimit:4;stroke-dasharray:none;stroke-opacity:1;filter:url(#w);enable-background:accumulate" transform="translate(5296.315 813.808)scale(2.97128)"/><path d="M-1528.022-205.988h27.76" style="fill:none;stroke:#000;stroke-width:5.04832554;stroke-linecap:square;stroke-linejoin:round;stroke-miterlimit:4;stroke-dasharray:none;stroke-opacity:1" transform="translate(5296.315 813.808)scale(2.97128)"/><path d="M-1529.64-205.986h30.967" style="fill:none;stroke:#ff0;stroke-width:1.56313789;stroke-linecap:round;stroke-linejoin:round;stroke-miterlimit:4;stroke-dasharray:1.56313784,3.12627569;stroke-dashoffset:0;stroke-opacity:1" transform="translate(5296.315 813.808)scale(2.97128)"/><path d="M-1530.375-220.031v5.062h32.813v-5.062z" style="color:#000;font-style:normal;font-variant:normal;font-weight:400;font-stretch:normal;font-size:medium;font-family:&quot;Bitstream Vera Sans&quot;;text-indent:0;text-decoration:none;text-decoration-line:none;letter-spacing:normal;word-spacing:normal;text-transform:none;writing-mode:lr-tb;direction:ltr;text-anchor:start;display:inline;overflow:visible;visibility:visible;fill:#000;fill-opacity:1;stroke:#fff;stroke-width:2.69244027;stroke-miterlimit:4;stroke-dasharray:none;stroke-opacity:1;filter:url(#x);enable-background:accumulate" transform="translate(5295.856 881.861)scale(2.97128)"/><path d="M-1527.84-217.5h27.76" style="fill:none;stroke:#000;stroke-width:5.04832554;stroke-linecap:square;stroke-linejoin:round;stroke-miterlimit:4;stroke-dasharray:none;stroke-opacity:1" transform="translate(5295.856 881.861)scale(2.97128)"/><path d="M-1529.485-217.56h30.968" style="fill:none;stroke:red;stroke-width:1.56313789;stroke-linecap:round;stroke-linejoin:round;stroke-miterlimit:4;stroke-dasharray:1.56313784,3.12627569;stroke-dashoffset:0;stroke-opacity:1" transform="translate(5295.856 881.861)scale(2.97128)"/><use xlink:href="#y" width="744.09448" height="1052.3622" style="stroke:#fff;stroke-width:1.68277514;stroke-miterlimit:4;stroke-dasharray:none;stroke-opacity:1;filter:url(#z)"/><text xml:space="preserve" id="y" x="729.46307" y="246.45432" style="color:#000;font-style:normal;font-variant:normal;font-weight:400;font-stretch:normal;font-size:32px;font-family:&quot;Times New Roman&quot;;text-align:center;writing-mode:lr-tb;text-anchor:middle;display:inline;overflow:visible;fill:#000;fill-opacity:1;fill-rule:nonzero;enable-background:accumulate"><tspan x="729.46307" y="246.45432">2</tspan></text><g transform="translate(5295.856 847.691)scale(2.97128)"><use xlink:href="#A" width="744.09448" height="1052.3622" style="stroke:#fff;stroke-width:1.68277514;stroke-miterlimit:4;stroke-dasharray:none;stroke-opacity:1;filter:url(#B)"/><path d="M-1530.531-197.812v5.03h32.781v-5.03z" style="color:#000;font-style:normal;font-variant:normal;font-weight:400;font-stretch:normal;font-size:medium;font-family:&quot;Bitstream Vera Sans&quot;;text-indent:0;text-decoration:none;text-decoration-line:none;letter-spacing:normal;word-spacing:normal;text-transform:none;writing-mode:lr-tb;direction:ltr;text-anchor:start;display:inline;overflow:visible;visibility:visible;fill:#000;fill-opacity:1;stroke:#fff;stroke-width:2.69244027;stroke-miterlimit:4;stroke-dasharray:none;stroke-opacity:1;filter:url(#C);enable-background:accumulate"/><path d="M-1528.022-195.292h27.76" style="fill:none;stroke:#000;stroke-width:5.04832554;stroke-linecap:square;stroke-linejoin:round;stroke-miterlimit:4;stroke-dasharray:none;stroke-opacity:1"/><path d="M-1529.64-195.232h30.967" style="fill:none;stroke:#0ff;stroke-width:1.56313789;stroke-linecap:round;stroke-linejoin:round;stroke-miterlimit:4;stroke-dasharray:1.56313784,3.12627569;stroke-dashoffset:0;stroke-opacity:1"/><text xml:space="preserve" id="A" x="-1536.7216" y="-191.7157" style="color:#000;font-style:normal;font-variant:normal;font-weight:400;font-stretch:normal;font-size:10.76976109px;font-family:&quot;Times New Roman&quot;;text-align:center;writing-mode:lr-tb;text-anchor:middle;display:inline;overflow:visible;fill:#000;fill-opacity:1;fill-rule:nonzero;enable-background:accumulate"><tspan x="-1536.7216" y="-191.7157">3</tspan></text></g><text xml:space="preserve" id="s" x="716.98969" y="244.95625" style="color:#000;font-style:normal;font-variant:normal;font-weight:400;font-stretch:normal;font-size:32px;font-family:&quot;Times New Roman&quot;;writing-mode:lr-tb;text-anchor:end;fill:#000;fill-opacity:1;fill-rule:nonzero;enable-background:accumulate"><tspan x="716.98969" y="244.95625">F1 Sectors:</tspan></text><use xlink:href="#b" width="1273.507" height="899.33447" style="stroke:#c8c8c8;stroke-width:5;stroke-linecap:butt;stroke-linejoin:miter;stroke-miterlimit:4;stroke-dasharray:none;stroke-opacity:1"/><use xlink:href="#e" width="744.09448" height="1052.3622" style="stroke:#000;stroke-width:15;stroke-linecap:butt;stroke-linejoin:miter;stroke-miterlimit:4;stroke-dasharray:none;stroke-opacity:1"/><path d="M409.111 289.313c3.003-6.279 6.167-12.45 9.574-18.455 5.534-9.753 14.293-17.945 22.912-25.108 7.493-6.228 16.312-12.422 25.422-15.065 7.838-2.274 17.254-.949 25.423.314 3.34.516 6.445 2.832 9.101 5.021 6.864 5.657 14.39 11.177 19.46 18.518 29.245 42.353 56.45 86.55 83.486 130.564 60.425 98.373 119.202 197.768 178.898 296.595 24.732 40.944 49.388 81.936 74.384 122.718 18.735 30.568 39.406 60.303 56.808 91.333 2.371 4.227 3.094 9.773 2.511 14.437-.672 5.38-1.785 12.773-6.277 15.693-16.432 10.68-37.212 18.201-56.494 25.108-8.756 3.137-18.269 4.904-27.62 5.022-112.676 1.423-225.426 2.217-338.193 2.732" style="fill:none;stroke:#00fdfd;stroke-width:4;stroke-linecap:round;stroke-linejoin:miter;stroke-miterlimit:4;stroke-dasharray:4,8;stroke-dashoffset:0;stroke-opacity:1"/><path d="M-16.25 325.23c8.017 6.847 16.21 13.412 24.724 19.385 7.724 5.418 17.685 7.186 26.678 10.357 10.885 3.838 22.514 6.046 32.955 10.671 5.147 2.28 10.009 5.922 13.81 10.044 4.882 5.294 8.929 11.752 12.24 18.203 2.757 5.371 5.246 11.31 5.963 17.262 1.061 8.8.186 18.047-.627 26.992-.966 10.618-3.6 21.088-4.708 31.7-.88 8.428-2.375 17.162-1.256 25.422 1.078 7.956 3.823 16.32 7.847 23.225 3.718 6.382 9.713 11.673 15.379 16.635 12.014 10.521 24.697 20.433 37.663 29.816 26.789 19.387 54.755 37.178 81.602 56.495 16.047 11.545 32.734 21.52 47.55 34.367 3.283 2.846 6.879 8.061 7.846 12.083 1.02 4.243-.314 10.8-2.354 14.438-1.83 3.266-6.641 5.142-10.357 6.905-4.444 2.108-9.28 2.945-14.124 3.452-6.14.643-15.088-.258-21.342-.941-98.993-10.825-195.477-23.543-294.398-32.328-9.465-.84-19.23 1.678-28.247 4.394-7.304 2.201-14.545 5.885-20.714 10.358-6.385 4.629-11.935 10.762-16.949 16.948-7.96 9.82-14.885 20.56-21.97 31.072-2.645 3.925-6.183 7.967-7.218 12.24-.638 2.632.31 6.676 2.197 8.474 2.612 2.491 7.3 3.913 11.299 4.394 37.744 4.54 75.922 7.585 113.93 10.671 10.954.89 21.962 1.244 32.955 1.256 184.75.197 369.74 1.195 554.271-.628 6.086-.06 12.474-2.082 17.576-5.022 4.523-2.605 8.953-6.92 11.299-11.612 3.826-7.653 5.884-16.776 7.219-25.423 1.49-9.661 2.233-19.832 1.255-29.502-.8-7.906-3.852-15.68-6.591-23.226-2.806-7.729-6.386-15.222-10.043-22.597-2.62-5.284-5.287-10.665-8.788-15.38-4.659-6.27-10.06-12.127-15.693-17.575-7.13-6.897-14.399-13.945-22.598-19.46-9.69-6.517-20.183-12.348-31.072-16.634-18.614-7.327-38.325-12.032-57.436-18.204-7.776-2.511-16.072-4.065-23.225-7.846-9.273-4.902-18.093-11.3-26.05-18.204-7.84-6.801-15.317-14.523-21.343-22.911-4.645-6.468-7.82-14.158-10.67-21.656-3.95-10.392-7.03-21.214-9.73-32.014-1.799-7.195-3.856-14.632-3.766-21.97.12-9.82 1.45-20.07 4.393-29.502 5.74-18.396 13.99-36.18 21.657-53.984 8.092-18.79 15.513-38.137 24.322-56.557" style="fill:none;stroke:red;stroke-width:4;stroke-linecap:round;stroke-linejoin:miter;stroke-miterlimit:4;stroke-dasharray:4,8;stroke-dashoffset:0;stroke-opacity:1"/><path d="M488.506 958.74c-110.003.503-220.023.74-330.008 1.034-128.157.344-256.317-.596-384.475-.941-27.096-.073-55.885 2.782-81.289-.314-3.785-.461-5.29-6.63-6.277-10.357-.897-3.387-1.026-7.96.628-10.985 2.635-4.821 8.36-8.186 12.24-12.555 13.591-15.3 27.978-30.306 40.174-46.45 2.346-3.106 3.203-7.465 3.452-11.3.274-4.22-.45-8.789-1.883-12.867-9.553-27.203-21.834-53.685-31.072-80.976-2.165-6.397-3.098-13.357-3.138-20.086-.064-10.534 1.574-21.167 2.824-31.7 3.667-30.896 7.905-61.731 11.927-92.588 8.741-67.067 16.315-134.306 26.364-201.182 11.576-77.044 18.522-154.987 32.641-231.626 1.29-7.008 2.705-15.113 6.591-20.401 2.495-3.396 8.185-4.394 12.554-5.65 4.733-1.36 9.908-2.645 14.752-2.197 6.455.598 13.114 2.744 19.145 5.336 5.896 2.534 11.704 5.943 16.634 10.043 5.636 4.688 10.648 10.416 15.065 16.321 5.836 7.8 10.008 16.856 15.693 24.795 5.404 7.545 11.1 15.006 17.576 21.656 16.854 17.307 34.438 34.038 52.414 50.217 10.828 9.745 21.602 19.774 32.712 29.263" style="fill:none;stroke:#ff0;stroke-width:4;stroke-linecap:round;stroke-linejoin:miter;stroke-miterlimit:4;stroke-dasharray:4,8;stroke-dashoffset:4;stroke-opacity:1"/></g></svg>