<svg xmlns="http://www.w3.org/2000/svg" width="184.282" height="60" viewBox="0 0 184.282 60"><defs><clipPath id="a"><path fill="none" d="M0 0h184.282v60H0z"/></clipPath></defs><g fill="#fff" clip-path="url(#a)"><path d="M43.834 41.283a2.52 2.52 0 0 1-1.528-.674 88 88 0 0 1-2.442-2.564c-1.842-2.021-2.044-2.5-2.074-2.8-.244-.959.564-1.552 1.106-1.949.405-.3.825-.6.928-.987a26 26 0 0 1 2.777-6.891A65.6 65.6 0 0 1 57.747 8.975a61.4 61.4 0 0 1 10.861-6.6c.55-.269.984-.481 1.213-.618.291-.174.6-.4.9-.621A4.06 4.06 0 0 1 73.292.007c1.309.114 1.906 1.552 2.1 2.025.432 1.039 2.908 4.285 6.3 7.918 3.83 4.1 7.535 7.319 10.165 8.837 6.344 3.663 8.555 5.081 10.979 7.419 2.035 1.963 5.011 4.6 7.346 4.8a3 3 0 0 0 .377.011 5.78 5.78 0 0 0 5.7-3.879 7.9 7.9 0 0 0 .388-2.069 9.9 9.9 0 0 1 .886-3.667 3.62 3.62 0 0 1 3.814-1.8l.061.006c.746.065 3.465.063 6.343.06 4.056 0 8.652-.008 10.5.154a6 6 0 0 1 .667.088 2.21 2.21 0 0 1 1.809 1.57 3.92 3.92 0 0 1-1.227 3.482 2 2 0 0 1 .25-.011 1 1 0 0 1 .117.007c1.36.119 5.913 2.111 6.586 4.523a2.36 2.36 0 0 1-1.1 2.644 46 46 0 0 0-.842.643c-3.495 2.707-12.778 9.9-24.191 8.9a27 27 0 0 1-13.393-5.168c-7.973-5.5-11.669-8.4-13.445-9.79a12 12 0 0 0-1.571-1.148c-.015 0-.042.01-.093.026-.033.017-.1.063-.152.095a1.73 1.73 0 0 1-1.093.375 1.1 1.1 0 0 1-.445-.14l-.12-.068a4.85 4.85 0 0 1-1.737-1.5 1.96 1.96 0 0 1-.3-1.083 1.41 1.41 0 0 0-.389-1.058c-.179-.185-.636-.713-1.329-1.513-1.681-1.941-4.493-5.189-7.22-8.049-4.493-4.712-5.757-5.19-6.038-5.224l-.167-.018c-2.739-.24-8.161 1.4-11.9 6.908a2.16 2.16 0 0 0-.212 1.495 3.2 3.2 0 0 1-1.113 3.077c-.413.415-.927.981-1.471 1.579-2.614 2.877-4.582 4.9-6.1 4.77a1.5 1.5 0 0 1-.27-.048l-.4-.112a6.5 6.5 0 0 0-.985-.232c-.185-.016-.319-.028-.711.463a24 24 0 0 0-2.805 4.874c-.915 2.134-1.847 5.275-1.088 8.113a2.52 2.52 0 0 1-.273 2.368 1.9 1.9 0 0 1-1.663.621M39.227 35a43 43 0 0 0 4.1 4.583 1.1 1.1 0 0 0 .631.255c.074.007.323.018.425-.105s.152-.466-.012-1.063c-.7-2.6-.308-5.652 1.155-9.062a25.3 25.3 0 0 1 3-5.207 2.15 2.15 0 0 1 1.968-1 7 7 0 0 1 1.249.28l.393.109h.016c.089.008.6-.017 1.986-1.273.957-.868 2-2.016 2.92-3.028.556-.611 1.08-1.189 1.517-1.627a1.82 1.82 0 0 0 .7-1.886 3.54 3.54 0 0 1 .4-2.389l.035-.057a18 18 0 0 1 6.943-6.149 12.6 12.6 0 0 1 6.3-1.42q.11.01.217.023c1.795.219 5.9 4.206 14.176 13.762.628.725 1.123 1.3 1.275 1.454a2.8 2.8 0 0 1 .793 1.972 2 2 0 0 0 .04.343 3.45 3.45 0 0 0 1.246 1.057c.058-.033.127-.079.176-.11a2 2 0 0 1 .483-.255 1.7 1.7 0 0 1 .674-.1c.546.048.926.345 2.34 1.453 1.766 1.383 5.439 4.26 13.379 9.741l.009.006a25.6 25.6 0 0 0 12.689 4.911c10.849.949 19.807-5.989 23.179-8.6.343-.265.639-.494.873-.666.714-.523.6-.919.557-1.087a5.13 5.13 0 0 0-2.394-2.268 9.5 9.5 0 0 0-2.924-1.2h-.029c-.124 0-.354.248-.587.818a17 17 0 0 0-.693 2.547c-.121.55-.235 1.068-.363 1.513-.411 1.416-1.418 1.441-1.716 1.415a2.28 2.28 0 0 1-1.626-1.09c-.8-1.215-.1-4 3.336-7.248 1.075-1 1.408-1.965 1.264-2.487-.028-.1-.114-.412-.706-.537a5 5 0 0 0-.495-.062c-1.789-.157-6.352-.152-10.377-.149-3.038 0-5.661.005-6.47-.066l-.062-.005c-2.468-.216-2.83 1.437-3.135 4.184a8.6 8.6 0 0 1-.515 2.52 8.65 8.65 0 0 1-2.087 2.989 7.56 7.56 0 0 1-4.873 1.726 5 5 0 0 1-.551-.016c-2.761-.242-5.845-2.907-8.224-5.2-2.313-2.231-4.472-3.613-10.7-7.207-3.763-2.172-8.193-6.635-10.5-9.1-3.3-3.529-6.006-6.963-6.583-8.351-.171-.411-.514-1.105-.893-1.139s-1.024.438-1.589.855c-.325.24-.662.487-1.013.7-.282.168-.718.381-1.321.676a60 60 0 0 0-10.62 6.449 64.1 64.1 0 0 0-14.81 16.085 25.1 25.1 0 0 0-2.576 6.443v.014a3.35 3.35 0 0 1-1.474 1.792 3.2 3.2 0 0 0-.548.458Zm98.508-8.2c-1.861 2.212-1.978 3.726-1.795 4a.96.96 0 0 0 .538.445h.011a.74.74 0 0 0 .189-.375c.115-.4.225-.9.341-1.423a19 19 0 0 1 .716-2.651"/><path d="M53.96 36.557a3.55 3.55 0 0 0-1.677-.4q-1.317 0-1.317.469 0 .276.495.36.674.058 1.349.122a3.5 3.5 0 0 1 1.381.347.92.92 0 0 1 .456.842 1.09 1.09 0 0 1-.569.983 3.2 3.2 0 0 1-1.648.347 3.92 3.92 0 0 1-2.435-.694l.418-.546a3.4 3.4 0 0 0 2 .572 2.5 2.5 0 0 0 1.034-.17q.366-.17.366-.453 0-.315-.45-.443a4 4 0 0 0-.777-.1q-.822-.038-1.009-.058a2.3 2.3 0 0 1-1.079-.315.82.82 0 0 1-.347-.713 1.01 1.01 0 0 1 .556-.9 3.06 3.06 0 0 1 1.558-.331 3.7 3.7 0 0 1 2.165.578ZM55.611 35.58h.771v3.951h-.771zM62.34 39.531h-1.15l-2.685-3.3v3.3h-.771V35.58h1.149l2.687 3.3v-3.3h.771ZM68.414 36.533l-.707.244a2.2 2.2 0 0 0-1.612-.63 2.14 2.14 0 0 0-1.343.388 1.27 1.27 0 0 0 0 2.022 2.17 2.17 0 0 0 1.355.384 2.15 2.15 0 0 0 1.612-.642l.662.353a2.92 2.92 0 0 1-2.293.983 2.95 2.95 0 0 1-1.911-.588 1.9 1.9 0 0 1 .1-3.067 3.176 3.176 0 0 1 4.137.552M73.746 39.531h-4.253V35.58h4.105v.694h-3.331v.854h2.319v.694h-2.319v1.015h3.482ZM77.696 39.528h-.774v-3.88l-.745.321v-.668a2.05 2.05 0 0 0 .745-.424h.771ZM82.759 36.987a2.44 2.44 0 0 1-1.947.822 2.67 2.67 0 0 1-1.539-.393 1.22 1.22 0 0 1-.569-1.05 1.32 1.32 0 0 1 .594-1.13 3.26 3.26 0 0 1 3.575.241 2.27 2.27 0 0 1 .726 1.762 2.2 2.2 0 0 1-.771 1.731 2.62 2.62 0 0 1-1.805.643 2.85 2.85 0 0 1-2.088-.79l.52-.5a1.88 1.88 0 0 0 1.516.585 2.1 2.1 0 0 0 .777-.141 1.62 1.62 0 0 0 .761-.6 1.6 1.6 0 0 0 .286-.922.7.7 0 0 0-.038-.257m-.174-.723a1.84 1.84 0 0 0-1.712-.767 1.95 1.95 0 0 0-1.01.222.66.66 0 0 0-.369.583.7.7 0 0 0 .359.609 1.84 1.84 0 0 0 .994.229 1.99 1.99 0 0 0 1.737-.877M89.1 39.531h-4.722a2.42 2.42 0 0 1 1.934-2.31q.038-.013.842-.232a3 3 0 0 0 .662-.245.56.56 0 0 0 .334-.5.6.6 0 0 0-.331-.531 1.77 1.77 0 0 0-.922-.2 2.83 2.83 0 0 0-1.818.655l-.488-.516a3.7 3.7 0 0 1 2.319-.833 2.5 2.5 0 0 1 1.5.419 1.26 1.26 0 0 1 .578 1.063q0 .922-1.227 1.27-.456.1-1.343.354a1.8 1.8 0 0 0-1.124.915h3.81ZM93.86 36.987a2.44 2.44 0 0 1-1.947.822 2.67 2.67 0 0 1-1.539-.393 1.22 1.22 0 0 1-.569-1.05 1.32 1.32 0 0 1 .594-1.13 3.26 3.26 0 0 1 3.575.241 2.27 2.27 0 0 1 .726 1.762 2.2 2.2 0 0 1-.771 1.731 2.62 2.62 0 0 1-1.805.643 2.85 2.85 0 0 1-2.088-.79l.52-.5a1.88 1.88 0 0 0 1.516.585 2.1 2.1 0 0 0 .777-.141 1.62 1.62 0 0 0 .761-.6 1.6 1.6 0 0 0 .286-.922.7.7 0 0 0-.039-.257m-.174-.723a1.84 1.84 0 0 0-1.712-.767 1.95 1.95 0 0 0-1.01.222.66.66 0 0 0-.369.583.7.7 0 0 0 .359.609 1.84 1.84 0 0 0 .994.229 1.99 1.99 0 0 0 1.737-.877M6.314 48.385l3.4 7.429 3.414-7.429H19.4v11.443h-3.427l.086-8.561h-.583l-4.306 8.561h-2.9l-4.307-8.561h-.617l.086 8.561H0V48.385ZM35.341 49.003c.875.669 1.132 1.818 1.132 5.113 0 3.277-.257 4.426-1.132 5.1s-1.939.789-6.725.789-5.85-.12-6.725-.789-1.132-1.818-1.132-5.1c0-3.294.257-4.426 1.132-5.113.875-.669 1.921-.789 6.828-.789 4.667 0 5.747.137 6.622.789m-10.826 2.9a6 6 0 0 0-.274 2.488c0 1.441.1 1.9.515 2.23.446.36 1.012.412 3.86.412s3.4-.051 3.86-.412c.395-.309.515-.806.515-2.179 0-1.716-.1-2.368-.412-2.745-.395-.463-.755-.515-4.1-.515-3.277 0-3.62.069-3.963.721M43.952 48.385l5.988 8.527h.36l-.086-8.527h3.551v11.443h-6.056l-6.022-8.527h-.377l.086 8.527h-3.551V48.385ZM67.096 57.89H59.53l-.978 1.939h-3.98l6.056-11.443h5.421l5.988 11.443h-3.965Zm-3.431-6.845h-.686l-2.213 4.341h5.113ZM86.806 55.42c.034.686.034.926.034 1.167 0 1.75-.5 2.608-1.75 3.02a16.6 16.6 0 0 1-4.581.395c-4.649 0-6.056-.137-6.983-.669a2.56 2.56 0 0 1-1.235-2.23c-.051-.515-.086-1.458-.086-2.917 0-2.556.069-3.5.326-4.135.618-1.544 1.87-1.836 7.823-1.836 3.088 0 4.152.12 4.941.532.961.5 1.321 1.338 1.321 3.14v.6h-3.483c-.034-.755-.069-.909-.274-1.081-.257-.223-1.269-.326-3.483-.326-2.162 0-2.8.069-3.139.343-.412.343-.549 1.012-.549 2.745s.1 2.282.532 2.591c.395.309.978.377 3.328.377 3.672 0 3.74-.034 3.757-1.716ZM102.45 49.003c.875.669 1.132 1.818 1.132 5.113 0 3.277-.257 4.426-1.132 5.1s-1.939.789-6.725.789-5.85-.12-6.725-.789-1.132-1.818-1.132-5.1c0-3.294.257-4.426 1.132-5.113.875-.669 1.921-.789 6.828-.789 4.667 0 5.747.137 6.622.789m-10.826 2.9a6 6 0 0 0-.274 2.488c0 1.441.1 1.9.515 2.23.446.36 1.012.412 3.86.412s3.4-.051 3.86-.412c.394-.309.515-.806.515-2.179 0-1.716-.1-2.368-.412-2.745-.395-.463-.755-.515-4.1-.515-3.277 0-3.62.069-3.963.721M119.331 52.071h-1.417v-.395c0-.615.023-1.405-.476-1.754a7.2 7.2 0 0 0-3.055-.453h-2.973c-.685 0-2.346.023-2.857.488a4.38 4.38 0 0 0-.662 2.509v2.474a5.6 5.6 0 0 0 .476 2.625c.43.662 2.16.72 3.566.72h1.823c1.475 0 3.031.1 3.786-.395.569-.372.511-.953.511-1.6v-.6h1.429v1.092a2.53 2.53 0 0 1-.476 1.824c-.813.906-2.567 1.022-3.682 1.022h-3.751c-1.754 0-3.357-.07-4.378-1.1-.6-.6-.871-2.451-.871-3.693v-2.067c0-.755.209-2.88.964-3.635.79-.778 2.149-.987 4.309-.987h2.695c1.707 0 3.751-.012 4.564 1.173a3.23 3.23 0 0 1 .476 2.218ZM121.283 48.134h1.568v11.487h-1.568zM137.012 55.489a2.3 2.3 0 0 1 .441 1.475v2.66h-1.533v-3a1.4 1.4 0 0 0-.488-1.231 2.26 2.26 0 0 0-1.336-.29h-7.863v4.518h-1.5V48.134h9.579a2.9 2.9 0 0 1 2.242.732 3.27 3.27 0 0 1 .906 2.52v.65a2.73 2.73 0 0 1-.627 1.986 2.33 2.33 0 0 1-1.15.6 2.1 2.1 0 0 1 1.324.86m-10.778-1.661h7.828a1.9 1.9 0 0 0 1.533-.441 2.25 2.25 0 0 0 .348-1.405v-.453a1.9 1.9 0 0 0-.546-1.707 2.05 2.05 0 0 0-1.266-.349h-7.9ZM151.899 52.071h-1.417v-.395c0-.615.023-1.405-.476-1.754a7.2 7.2 0 0 0-3.055-.453h-2.973c-.685 0-2.346.023-2.857.488a4.38 4.38 0 0 0-.662 2.509v2.474a5.6 5.6 0 0 0 .476 2.625c.43.662 2.16.72 3.566.72h1.824c1.475 0 3.031.1 3.786-.395.569-.372.511-.953.511-1.6v-.6h1.429v1.092a2.53 2.53 0 0 1-.476 1.824c-.813.906-2.567 1.022-3.682 1.022h-3.751c-1.754 0-3.357-.07-4.379-1.1-.6-.6-.871-2.451-.871-3.693v-2.067c0-.755.209-2.88.964-3.635.79-.778 2.149-.987 4.309-.987h2.695c1.707 0 3.751-.012 4.564 1.173a3.23 3.23 0 0 1 .476 2.218ZM153.503 48.134h1.487v8.3a1.77 1.77 0 0 0 .337 1.254c.6.627 2.613.592 3.7.592h1.673c1.6 0 3.461.116 4.1-.511a1.87 1.87 0 0 0 .4-1.405v-8.235h1.417v8.459a2.7 2.7 0 0 1-.72 2.3 5.1 5.1 0 0 1-3.275.732h-5.3a5.7 5.7 0 0 1-2.88-.557 2.94 2.94 0 0 1-.941-2.625ZM168.405 48.134h1.568v11.487h-1.568zM184.282 48.134v1.533h-5.47v9.953h-1.533v-9.953h-5.749l.011-1.533Z"/></g></svg>