<svg xmlns="http://www.w3.org/2000/svg" viewBox="0 0 450 40.91"><defs><style>.cls-1{fill:#4d4948}</style></defs><g id="レイヤー_2"><g id="SP"><path d="M147.78 21.4c-2.26 0-3.57-.82-3.57-3v-2.79c0-2.13 1.31-3 3.57-3h18.1v3h-17.5c-.57 0-.75.2-.75.86v1.21c0 .65.18.85.75.85h14.06c2.27 0 3.58.84 3.58 3v3.07c0 2.14-1.31 3-3.58 3h-18.3v-3h17.7c.58 0 .75-.19.75-.85v-1.49c0-.66-.17-.86-.75-.86ZM224.12 27.57h14.71c2.27 0 3.58-.83 3.58-3v-12H239v11.17c0 .66-.17.87-.75.87h-13.53c-.58 0-.76-.21-.76-.87V12.65h-3.43v12c0 2.13 1.32 3 3.59 3M267.88 12.65h-5.47l-9.05 5.53a2.38 2.38 0 0 1-1.51.45h-2.36v-6H246v14.94h3.49v-6h2.36a2.36 2.36 0 0 1 1.51.44l9.05 5.54h5.47l-12.21-7.46ZM173.19 27.57h14.71c2.27 0 3.59-.83 3.59-3v-12h-3.43v11.17c0 .66-.18.87-.76.87h-13.51c-.58 0-.75-.21-.75-.87V12.65h-3.43v12c0 2.13 1.31 3 3.58 3M289.76 12.65h-14.71c-2.28 0-3.59.83-3.59 3v12h3.43V16.47c0-.66.18-.86.76-.86h13.51c.57 0 .75.2.75.86v3.64h-12.56v3h12.56v4.5h3.43v-12c0-2.13-1.31-3-3.58-3M334.69 12.65h3.51v14.92h-3.51zM420.06 12.65h3.51v14.92h-3.51zM312.46 24.6c-.56 0-.74-.19-.74-.85v-7.28c0-.66.18-.86.74-.86h17.68v-3h-18.33c-2.25 0-3.55.83-3.55 3v9c0 2.14 1.3 3 3.55 3h18.33v-3ZM450 12.65h-21.88v2.96h9.21v11.96h3.46V15.61H450zM397.23 27.57h14.7c2.28 0 3.59-.83 3.59-3v-12h-3.43v11.1c0 .65-.18.86-.76.86h-13.51c-.57 0-.75-.21-.75-.86V12.65h-3.43v12c0 2.13 1.31 3 3.59 3M372.38 24.6c-.57 0-.74-.19-.74-.85v-7.28c0-.66.17-.86.74-.86h17.68v-3h-18.33c-2.25 0-3.55.83-3.55 3v9c0 2.14 1.3 3 3.55 3h18.33v-3ZM361.36 23.06c2.07-.08 3.26-.93 3.26-2.95v-4.5c0-2.13-1.31-3-3.59-3h-18.29v14.96h3.43v-12h14.26c.58 0 .76.2.76.86v2.78c0 .65-.18.86-.76.86h-11.76v3H357l4.5 4.5h4.39ZM114.61 40.21a6.1 6.1 0 0 1-2.92-.66L70.43 18.46a2.45 2.45 0 0 0-3.1.74L64 23.76a6 6 0 0 1-7.63 1.83l-3.56-1.82-7.07 9.74a6 6 0 0 1-7.64 1.82L3.29 17.53A6 6 0 0 1 .66 9.41a6 6 0 0 1 8.13-2.63l22.83 11.67a2.44 2.44 0 0 0 3.1-.75l.79-1.08a6 6 0 0 1 7.63-1.82l8.59 4.39L63.86 2.5A6 6 0 0 1 71.49.67l48.23 24.65a6 6 0 0 1 2.13 8.92l-2.52 3.48a6 6 0 0 1-4.72 2.49m-1.29-3.85a2.45 2.45 0 0 0 3.11-.75l2.57-3.48a2.44 2.44 0 0 0-.86-3.62L69.86 3.86a2.45 2.45 0 0 0-3.1.74L55 20.84l3 1.56a2.45 2.45 0 0 0 3.1-.74l3.31-4.56a6 6 0 0 1 7.63-1.83ZM6 9.7a2.45 2.45 0 0 0-1.06 4.64l34.83 17.8a2.45 2.45 0 0 0 3.11-.74l6.74-9.28L41.51 18a2.44 2.44 0 0 0-3.11.74l-.78 1.08A6 6 0 0 1 30 21.63L7.16 10A2.4 2.4 0 0 0 6 9.7M198.28 23.15l17.61-3.57c.84-.18 1.06-.51 1.06-2.41v-2.86c0-1.08-.22-1.66-1.55-1.66h-20.26v3h18.6c.27 0 .42.06.42.43v.56c0 .27-.17.39-.42.44l-17.6 3.58c-.85.17-1.07.51-1.07 2.4v2.84c0 1.08.22 1.67 1.55 1.67h20.26v-3h-18.6c-.27 0-.42-.07-.42-.44v-.56c0-.27.17-.38.42-.44" class="cls-1"/><path d="M0 0h450v40.91H0z" style="fill:none"/></g></g></svg>