<svg xmlns="http://www.w3.org/2000/svg" xml:space="preserve" width="1000" height="497.147"><g style="fill:#000"><path d="M795.136 86.278c-.31-.046-.61-1.19-1.21-1.788-.44-.43-.989-.404-1.28-.936-.11-.198-.075-.538-.2-.863-.246-.652-1.109-.71-1.109-1.42-.003-.767.72-.913 1.346-1.458.49-.437.536-.739 1.128-.952.506-.17 1.258.39 1.935.188.555-.165 1.087-.284 1.213-.855.111-.527-.008-1.342-.682-1.248-.227.026-1.213.357-2.422.228-1.46-.166-3.127-.642-3.29-2.27-.09-.91 1.036-1.983 2.123-1.765.751.147.396 1.034.804 1.464.537.552 3.578-1.925 6.403-1.925 1.19 0 2.075.301 2.954 1.221.082.071.182.221.31.231.12-.01.328-.128.397-.178 2.275-1.829 3.996-5.499 12.361-5.54 1.177-.008 2.516-.57 3.611-1.568.976-.902 1.546-2.307 2.101-3.73.838-2.138 2.337-4.217 4.612-6.53.124-.124 1.997-1.58 2.147-1.688.023-.017.161-.345.113-.528-.055-1.388-.257-5.42 2.75-5.604.735-.037.543.48.543.835-.002.703-.13 1.401.24 2.121.506.99-1.074 1.444-1.028 3.583.033 1.595-1.307 1.323-1.986 2.538-.392.704-.74 1.077-.715 1.938.153 4.845-1.03 8.03-1.62 8.811-.462.59-.843.824-.422 1.097 2.51 1.66 3.08 3.2 3.08 3.2 1.334 3.137 2.534 6.002 4.19 7.264.332.261 1.187.9 1.711 1.15 1.545.727 2.357 1.17 2.806 1.605.71.691 1.271 2.134.59 3.008-.846 1.08-2.309.223-2.954-.16-4.614-2.738-5.294-7.568-6.892-10.342-1.275-2.216-3.348-3.844-5.202-3.977-1.388-.103-2.887.178-4.378.833-3.627 1.59-5.61 3.643-6.08 4.006-.975.752-8.539 8.18-14.669 8.482 0 0-.76 1.524-.952 1.548-.448.058-.907-.909-1.236-1.022-.309-.102-.829 1.047-1.14.996M768.153 41.955c-.577.014-1.067.487-1.067 1.072l.002 19.12h-6.302V41.072c0-1.034.837-1.876 1.864-1.876h11.013c1.034 0 1.861.842 1.861 1.876v21.075h-6.296l-.005-19.12c0-.585-.49-1.058-1.07-1.072M789.25 62.147h-9.536a2.052 2.052 0 0 1-2.049-2.058V39.196h6.308v19.165a1.059 1.059 0 0 0 1.066 1.052 1.06 1.06 0 0 0 1.074-1.036v-19.18h6.281v19.18c.008.582.48 1.036 1.068 1.036.582 0 1.064-.465 1.068-1.052V39.196h6.308V60.09c0 1.14-.922 2.058-2.05 2.058h-9.538M756.583 44.963h-6.366v-5.767h-6.298v22.951h12.704c1.137 0 2.025-.924 2.025-2.067V47.032a2.063 2.063 0 0 0-2.065-2.069zm-4.229 13.358a1.078 1.078 0 0 1-1.067 1.092h-1.07V47.805h1.07c.556 0 1.072.442 1.067 1.078v9.438" style="fill:#000;fill-opacity:1;fill-rule:nonzero;stroke:none" transform="matrix(10.52312 0 0 -10.52312 -7828.352 909.614)"/><path d="M811.411 39.196v5.762h-2.14v-5.762h-6.296V60.09c0 1.14.92 2.058 2.05 2.058h10.633c1.132 0 2.05-.918 2.05-2.058V39.196h-6.297zm0 8.605V58.37a1.057 1.057 0 0 1-1.073 1.033 1.066 1.066 0 0 1-1.068-1.05v-10.55h2.141" style="fill:#000;fill-opacity:1;fill-rule:nonzero;stroke:none" transform="matrix(10.52312 0 0 -10.52312 -7828.352 909.614)"/></g></svg>