<svg xmlns="http://www.w3.org/2000/svg" width="170.855" height="58.615002" viewBox="0 0 45.205383 15.508553"><path d="M.152 10.165c.581-.061.958-.164 1.13-.31.173-.144.26-.511.26-1.101V1.709c0-.558-.086-.922-.256-1.093C1.116.445.738.339.152.298V0h4.465v.298c-.581.03-.97.126-1.17.285-.197.16-.296.502-.296 1.027v7.594c0 .175.03.313.089.413.059.1.19.163.39.19.118.015.243.025.375.03.131.006.377.008.738.008 1.407 0 2.357-.116 2.852-.348.495-.232.974-.825 1.438-1.78h.402l-.773 2.745H.152ZM11.929 0v.276c-.395.005-.664.03-.807.078-.252.083-.378.252-.378.508 0 .13.045.313.135.547.09.235.258.626.504 1.174l2.47 5.503 2.245-5.963c.099-.262.174-.484.225-.667.051-.182.077-.33.077-.446 0-.307-.131-.515-.395-.625-.155-.063-.412-.099-.77-.11V0h3.233v.276c-.334.046-.58.135-.74.268-.24.2-.48.603-.715 1.207L13.52 10.65h-.24l-3.9-8.693C9.05 1.222 8.784.764 8.585.584c-.198-.18-.489-.282-.87-.308V0ZM19.068 10.165c.651-.067 1.07-.215 1.255-.444.185-.229.277-.76.277-1.592V1.716c0-.57-.09-.942-.27-1.114C20.15.43 19.74.33 19.1.298V0h3.122l3.63 7.874L29.397 0h3.144v.298c-.587.041-.965.148-1.135.32-.17.172-.254.538-.254 1.098v7.023c0 .575.084.943.254 1.105.17.162.548.27 1.135.32v.298h-4.432v-.297c.64-.052 1.039-.166 1.197-.343.157-.178.236-.6.236-1.269V1.462l-4.05 9h-.216l-3.98-8.63v6.297c0 .864.125 1.427.377 1.688.164.17.53.286 1.1.348v.297h-3.704zM34.26 10.165c.618-.067 1.004-.18 1.158-.34.155-.161.232-.58.232-1.26V1.71c0-.562-.087-.928-.26-1.097-.171-.169-.548-.273-1.13-.314V0h4.389v.298c-.579.04-.955.145-1.13.314-.173.17-.26.535-.26 1.097v3.087h4.796V1.709c0-.562-.085-.928-.255-1.097-.17-.169-.548-.273-1.134-.314V0h4.388v.298c-.582.04-.959.145-1.13.314-.173.17-.26.535-.26 1.097v7.045c0 .569.087.934.26 1.094.171.16.548.266 1.13.317v.297h-4.388v-.297c.622-.061 1.01-.174 1.16-.337.153-.163.23-.584.23-1.262V5.49h-4.797v3.264c0 .569.087.935.26 1.098.175.163.551.267 1.13.313v.297H34.26zM.12 11.537h44.965v.649H.121ZM8.682 15.401a.026.026 0 0 0 .026-.027" style="fill:#373535;fill-opacity:1;fill-rule:nonzero;stroke:none;stroke-width:.352777"/><path d="M8.708 15.374V13.18a.027.027 0 0 0-.026-.027l-.161-.001c-.015 0-.026.014-.026.03v2.193c0 .015.013.027.027.027l.16-.001a.026.026 0 0 0 .026-.027M10.232 15.374V13.18a.027.027 0 0 0-.026-.027l-.162-.001c-.014 0-.025.014-.025.03v2.193c0 .015.012.027.026.027l.16-.001a.027.027 0 0 0 .027-.027M.99 14.414c-.016 0-.031-.002-.04-.017l-.74-.922.003 1.9c0 .015 0 .027-.027.027H.027c-.015 0-.027-.007-.027-.021v-2.2c0-.015.025-.027.026-.027h.187l.778.955" style="fill:#373535;fill-opacity:1;fill-rule:nonzero;stroke:none;stroke-width:.352777"/><path d="M.992 14.414c.015 0 .031-.002.039-.017l.74-.922-.002 1.9c0 .015 0 .027.027.027h.159c.015 0 .026-.007.026-.021l.001-2.2c0-.015-.025-.027-.026-.027h-.187l-.778.955M7.635 13.18a.026.026 0 0 0-.027-.027l-1.659-.001c-.014 0-.024.014-.024.03v.13c0 .02.01.028.026.028h1.657a.027.027 0 0 0 .027-.027v-.134" style="fill:#373535;fill-opacity:1;fill-rule:nonzero;stroke:none;stroke-width:.352777"/><path d="M6.653 15.374c0 .016.013.028.023.028h.16c.014 0 .027-.015.027-.029V13.369c0-.014.017-.029.023-.029h-.263c.015 0 .027.017.027.032l.001 2.001M5.816 13.154c.015 0 .026.011.026.026v.132a.027.027 0 0 1-.028.027h-.906a.027.027 0 0 0-.027.027l-.001 1.821c0 .016.011.027.026.027h.91c.015 0 .027.011.027.026v.135c0 .015-.012.027-.027.027H4.698c-.015 0-.028-.012-.028-.027V13.18c0-.014.01-.026.026-.026h1.12" style="fill:#373535;fill-opacity:1;fill-rule:nonzero;stroke:none;stroke-width:.352777"/><path d="M4.853 14.171v.186h.964a.027.027 0 0 0 .026-.028V14.2a.027.027 0 0 0-.027-.027l-.963-.001M11.702 13.154c.015 0 .026.011.026.026l.001.132c0 .015-.014.027-.029.027h-.906c-.015 0-.03.013-.03.027l.002 1.821c0 .016.012.027.026.027h.91c.015 0 .027.011.027.026v.135a.027.027 0 0 1-.026.027h-1.12c-.014 0-.027-.012-.027-.027V13.18c0-.014.01-.026.025-.026h1.121" style="fill:#373535;fill-opacity:1;fill-rule:nonzero;stroke:none;stroke-width:.352777"/><path d="M10.74 14.171v.186h.963a.027.027 0 0 0 .026-.028V14.2a.027.027 0 0 0-.026-.027l-.963-.001M17.722 13.154c.015 0 .027.011.027.026l-.001.132a.027.027 0 0 1-.027.027h-.907a.028.028 0 0 0-.027.027l-.001 1.821c0 .016.012.027.026.027h.911c.015 0 .027.011.027.026v.135a.027.027 0 0 1-.027.027h-1.119c-.014 0-.028-.012-.028-.027V13.18c0-.014.011-.026.026-.026h1.12" style="fill:#373535;fill-opacity:1;fill-rule:nonzero;stroke:none;stroke-width:.352777"/><path d="M16.76 14.171v.186h.963c.014 0 .026-.013.026-.028V14.2a.027.027 0 0 0-.027-.027l-.963-.001M5.04 13.049a.136.136 0 1 0 .002-.273.136.136 0 0 0-.002.273M5.483 13.049c.076 0 .137-.06.137-.136a.136.136 0 1 0-.137.136M8.683 14.172h1.367v.185H8.683zM21.18 15.402a.026.026 0 0 1-.027-.027v-1.204h.211l.001 1.203c0 .014-.01.027-.025.027l-.16.001" style="fill:#373535;fill-opacity:1;fill-rule:nonzero;stroke:none;stroke-width:.352777"/><path d="m21.322 14.143-.73-.935-.268-.001.831 1.066zM12.243 13.506v1.87a.027.027 0 0 1-.028.026l-.158-.001a.026.026 0 0 1-.027-.026v-2.192c0-.015.013-.028.025-.03l.188.001 1.498 1.93.001-1.903c0-.015.007-.027.025-.027h.165c.013 0 .018.015.018.03v2.188c0 .014-.016.03-.03.03h-.155c-.01 0-.045-.005-.045-.02l-1.477-1.876M14.465 13.506v1.87a.026.026 0 0 1-.027.026l-.16-.001a.025.025 0 0 1-.025-.026v-2.192a.03.03 0 0 1 .024-.03l.188.001 1.499 1.93V13.18c0-.015.007-.027.025-.027h.165c.013 0 .019.015.019.03l-.001 2.188c0 .014-.015.03-.03.03h-.154c-.01 0-.046-.005-.046-.02l-1.477-1.876M17.872 15.266l.15-.18a.66.66 0 0 0 .418.166c.253 0 .432-.182.432-.368 0-.104-.05-.226-.204-.346l-.53-.368a.58.58 0 0 1-.241-.453c.004-.323.29-.587.639-.588.174-.001.363.069.53.224l-.158.172a.553.553 0 0 0-.372-.163c-.228 0-.405.183-.405.355 0 .085.036.176.147.265l.529.369c.201.152.3.346.3.533-.003.338-.304.601-.667.602h-.002a.898.898 0 0 1-.566-.22M19.161 15.266l.15-.18a.66.66 0 0 0 .419.166c.253-.001.432-.182.432-.368 0-.104-.05-.226-.203-.346l-.532-.368a.58.58 0 0 1-.24-.453c.003-.322.29-.587.639-.588.175-.001.363.069.53.224l-.159.172a.554.554 0 0 0-.371-.163c-.228 0-.405.184-.406.355 0 .085.037.177.147.265l.53.369c.2.152.3.346.3.533-.003.338-.304.601-.667.602h-.001a.899.899 0 0 1-.567-.22" style="fill:#373535;fill-opacity:1;fill-rule:nonzero;stroke:none;stroke-width:.352777"/><path d="m21.2 14.143.73-.935.27-.001-.833 1.066zM22.816 15.052a.027.027 0 1 0 0 .054v-.054M23.453 15.106a.027.027 0 0 0 .026-.027.026.026 0 0 0-.026-.027v.054M23.106 15.482c0 .015.013.027.027.027a.026.026 0 0 0 .026-.027h-.053M23.16 14.708a.027.027 0 0 0-.027-.027.027.027 0 0 0-.027.027h.053" style="fill:#373535;fill-opacity:1;fill-rule:nonzero;stroke:none;stroke-width:.352777"/><path d="m22.796 15.064.318-.375h.038l.322.375v.028l-.322.409h-.038l-.318-.407zM24.821 13.18a.027.027 0 0 0-.027-.026l-.157-.001a.027.027 0 0 0-.026.027v2.195c0 .015.014.026.028.026l1.118.001a.026.026 0 0 0 .027-.027v-.135c0-.014-.01-.025-.026-.025h-.91c-.015 0-.027-.012-.027-.028l.001-2M30.598 15.377a.026.026 0 0 1-.027.026l-.157-.001a.027.027 0 0 1-.027-.028" style="fill:#373535;fill-opacity:1;fill-rule:nonzero;stroke:none;stroke-width:.352777"/><path d="M30.387 15.376V13.18c0-.015.013-.026.027-.026h.157c.015 0 .028.012.028.027v2.197M37.078 15.376V13.18c0-.015.013-.026.027-.026h.157c.016 0 .027.012.027.027v2.197M28.353 13.153h-.212v1.414h.212zM29.962 14.567v-1.414l-.211.001v1.413zM29.75 14.567a.7.7 0 0 1-1.398 0h-.211a.91.91 0 1 0 1.82 0h-.21M35.044 13.153h-.213v1.414h.213zM36.652 14.567v-1.414l-.21.001v1.413zM36.441 14.567a.7.7 0 1 1-1.398 0h-.212a.91.91 0 0 0 1.821 0h-.211M30.944 15.248l.149-.18c.147.12.292.165.418.166.253-.001.433-.183.433-.369 0-.103-.05-.225-.203-.344l-.531-.369a.578.578 0 0 1-.242-.454c.004-.321.29-.586.64-.587a.78.78 0 0 1 .53.224l-.16.173a.546.546 0 0 0-.37-.163c-.23 0-.405.182-.406.353.001.086.037.178.147.266l.53.368c.201.154.3.347.299.533-.003.338-.304.602-.667.603h-.001a.891.891 0 0 1-.566-.22M33.808 15.11l.744-1.957h.22l-.87 2.25h-.196l-.87-2.25h.22l.752 1.957M39.185 13.18a.027.027 0 0 0-.027-.027h-1.659c-.015 0-.025.014-.025.028l.001.133c0 .018.011.026.026.026h1.657a.027.027 0 0 0 .027-.026v-.134M38.201 15.374c0 .015.015.028.024.028h.16c.015 0 .028-.014.028-.029v-2.002c0-.015.016-.03.023-.03h-.263c.015 0 .028.017.028.03v2.004M40.929 13.18a.027.027 0 0 0-.027-.027h-1.658c-.015 0-.025.014-.025.028v.133c0 .018.011.026.026.026h1.657a.027.027 0 0 0 .027-.026v-.134M39.946 15.374c0 .015.015.028.025.028h.159c.014 0 .028-.014.028-.029v-2.002c0-.015.016-.03.022-.03h-.263c.015 0 .028.017.028.03v2.004M43.499 13.507l-.001 1.87a.026.026 0 0 1-.026.026l-.16-.001a.026.026 0 0 1-.026-.026v-2.193c0-.014.012-.027.025-.029h.187l1.499 1.93v-1.902c0-.015.008-.027.026-.027h.164c.014 0 .018.014.018.03v2.187a.03.03 0 0 1-.03.03h-.155c-.01 0-.046-.005-.046-.02l-1.476-1.875M3.305 13.336c.534.038.92.439.92.933a.929.929 0 1 1-1.859 0c0-.498.393-.902.936-.934v-.224c-.667.033-1.165.51-1.16 1.158a1.153 1.153 0 0 0 2.306 0c0-.62-.491-1.124-1.154-1.158l.01.225M26.828 13.357c.534.04.92.44.92.934a.929.929 0 1 1-1.859 0c0-.498.392-.902.936-.934v-.224c-.666.032-1.165.51-1.159 1.158a1.152 1.152 0 1 0 2.305 0c0-.622-.49-1.125-1.154-1.158l.01.224M41.903 13.353c.535.04.92.44.92.934a.93.93 0 1 1-1.858 0c0-.499.392-.902.936-.935v-.223c-.667.032-1.166.51-1.16 1.158a1.153 1.153 0 1 0 2.305 0c0-.621-.49-1.124-1.153-1.158l.01.224" style="fill:#373535;fill-opacity:1;fill-rule:nonzero;stroke:none;stroke-width:.352777"/><path d="M37.288 15.377c0 .014-.01.026-.026.026l-.157-.001a.027.027 0 0 1-.027-.028" style="fill:#373535;fill-opacity:1;fill-rule:nonzero;stroke:none;stroke-width:.352777"/></svg>