<svg xmlns="http://www.w3.org/2000/svg" width="1024" height="381" viewBox="-2.284 -2.284 217.049 80.711"><path fill="#0b2245" fill-rule="evenodd" d="M193.928 11.36c-5.478 0-10.49 1.79-14.106 5.041-4.355 3.913-6.656 9.906-6.656 17.332 0 12.345 10.183 19.723 20.027 19.723 12.25 0 18.445-9.68 18.445-11.647 0-1.14-.753-1.261-1.078-1.261-.942 0-1.74.876-2.38 1.58-.132.142-.257.279-.376.4-3.368 3.434-7.682 5.402-11.84 5.402-7.017 0-12.724-7.532-12.724-16.79 0-10.95 3.923-16.272 11.99-16.272 4.9 0 9.478 3.379 12.895 9.514.029.05.062.115.103.191.358.684.957 1.83 1.82 1.83.857 0 1.305-.926 1.305-1.84 0-.428-.094-1.015-.195-1.636a23.252 23.252 0 0 1-.203-1.41l-.854-7.881c-.12-.63-.56-1.008-1.183-1.008-1.083 0-1.456.676-1.729 1.17-.242.44-.357.619-.76.619-.42 0-1.315-.35-2.351-.754-2.35-.916-5.903-2.303-10.15-2.303zm-42.561 0c-6.702 0-12.156 5.275-12.156 11.76 0 9.204 7.265 11.777 13.105 13.846 4.498 1.592 8.385 2.97 8.385 6.746 0 3.672-2.84 6.234-6.9 6.234-5.478 0-9.455-4.302-11.35-8.33a8.023 8.023 0 0 1-.229-.568c-.338-.895-.798-2.118-2.035-2.118-1.55 0-1.67 1.01-1.67 1.32 0 .42.147.951.276 1.419.053.192.104.371.14.539l2.034 8.031c.282.984 1.276 1.159 1.873 1.264.075.013.145.025.215.039 1.08.211 2.152.476 3.19.732 2.34.58 4.765 1.18 7.38 1.18 8.331 0 13.488-6.853 13.488-13.203 0-9.245-6.898-11.59-12.988-13.658-4.562-1.55-8.5-2.891-8.5-6.877 0-3.185 3.093-4.85 6.148-4.85 4.148 0 8.927 3.599 10.223 7.701l.078.244c.435 1.362.78 2.436 2.094 2.436.995 0 1.613-.659 1.613-1.723 0-.2-.06-.645-.182-1.547-.266-1.977-.712-5.286-.629-7.625 0-.722-.156-1.55-1.382-1.55-.342 0-.78.19-1.288.412-.405.176-.904.396-1.144.396-.653 0-1.492-.315-2.557-.713-1.736-.648-4.117-1.537-7.232-1.537zm-70.305.504c-.712 0-1.004.344-1.004 1.19 0 .93.648 1.236 1.942 1.843.27.125.572.267.91.432 1.979.979 2.682 3.986 2.682 6.266V43.65c0 3.338-.845 4.816-3.614 6.33l-.193.104c-.803.429-1.496.799-1.496 1.816 0 1.19.917 1.192 1.465 1.192 1.023 0 2.056-.12 3.054-.237.984-.113 2.005-.232 2.998-.232.995 0 2.013.119 2.997.232 1 .117 2.03.237 3.054.237.542 0 1.81 0 1.81-1.192 0-1.126-.827-1.593-1.72-1.933-4.111-1.572-4.676-4.78-4.676-8.012V26.509c0-1.09.124-1.09.205-1.09.086 0 .354.144.922 1.488l11.24 24.813.033.066c.285.58.642 1.306 1.465 1.306.679 0 1.318-.598 1.9-1.781l11.471-23.928.248-.51c.372-.758.723-1.479.938-1.65.06.213.117.719.117 1.344V45.29c0 3.233-.14 4.115-1.404 4.681-1.094.469-1.768.812-1.768 1.93 0 1.144 1.26 1.19 2.444 1.19h.142c1.15-.117 2.32-.176 3.453-.235 1.125-.056 2.292-.116 3.442-.232 1.149.116 2.311.176 3.437.232 1.133.059 2.301.118 3.451.234h.026c1.202 0 2.56 0 2.56-1.191 0-1.144-.718-1.479-1.89-1.934-4.4-1.717-4.623-4.742-4.623-9.533v-20.77c0-3.393.918-3.853 2.828-4.5l.307-.107c1.64-.587 2.63-.944 2.629-1.982.043-.472-.03-.798-.215-1a.655.655 0 0 0-.5-.211c-.872 0-1.757.058-2.611.117-.845.056-1.719.117-2.576.117-.855 0-1.732-.061-2.577-.117a37.41 37.41 0 0 0-2.61-.117c-.64 0-.932.276-1.554 1.482l-12.617 24.51c-.155.281-.298.56-.431.822-.258.503-.572 1.114-.737 1.285-.139-.216-.407-.792-.763-1.549a177.76 177.76 0 0 0-.788-1.658l-11.24-23.756c-.481-.978-1.04-1.136-2.19-1.136-.872 0-1.754.058-2.609.117-.845.056-1.72.117-2.576.117-.856 0-1.731-.061-2.576-.117a37.44 37.44 0 0 0-2.611-.117zM49.958 39.033a4.112 4.112 0 0 1-3.664.19 7.484 7.484 0 0 0-5.601-.01 7.09 7.09 0 0 1-2.749.511 7.095 7.095 0 0 1-2.75-.511 7.481 7.481 0 0 0-5.6.01 4.115 4.115 0 0 1-3.665-.19l.64-1.085a2.875 2.875 0 0 0 2.535.111V27.353h4.003v1.027a4.127 4.127 0 0 1 6.234.186 4.201 4.201 0 0 1 3.024-1.51c2.324-.117 4.302 1.68 4.42 4.012v6.994a2.878 2.878 0 0 0 2.532-.114l.64 1.085zm-13.98-.918v-6.4a1.427 1.427 0 0 0-2.833-.229v5.92c.972.113 1.923.35 2.833.71m6.765-.752v-5.726a1.424 1.424 0 0 0-1.549-1.285 1.423 1.423 0 0 0-1.285 1.361v6.446a13.583 13.583 0 0 1 2.834-.796m3.591 6.128a3.544 3.544 0 0 0-1.672-2.93 3.838 3.838 0 0 0-4.803.255 3.97 3.97 0 0 0-1.342 2.803 6.567 6.567 0 0 0 .365 3.203 3.81 3.81 0 0 0 2.228 2.02 3.528 3.528 0 0 0 2.94-.181 3.991 3.991 0 0 0 2.265-3.275h-2.47c-.157.516-.437.93-.787 1.16-.79.525-1.718 0-2.071-1.16-.353-1.165 0-2.533.787-3.057.791-.522 1.716 0 2.071 1.162h2.49zm-14.096 2.892c.01.29.19.546.456.656a1.84 1.84 0 0 0 1.393 0 .743.743 0 0 0 .458-.656.748.748 0 0 0-.415-.636 2.787 2.787 0 0 0-.622-.221c-.28-.064-.559-.127-.839-.184a6.539 6.539 0 0 0-.439-.072 4.232 4.232 0 0 1-2.22-1.009 2.54 2.54 0 0 1 .905-3.945 6.14 6.14 0 0 1 4.88-.053 2.38 2.38 0 0 1 1.583 2.211h-2.679a.936.936 0 0 0-.796-.747 1.524 1.524 0 0 0-1.031.105.765.765 0 0 0-.42.95c.2.346.547.582.943.639.754.105 1.5.277 2.224.515.309.06.6.188.855.37a2.507 2.507 0 0 1-.231 4.126 6.207 6.207 0 0 1-4.646.379 2.458 2.458 0 0 1-2.004-2.428h2.645z"/><path fill="#0b2245" d="M150.31 65.895c-.1 0-.16.114-.304.446l-3.198 7.433a1.17 1.17 0 0 1-.373.496c-.155.128-.435.205-.435.409 0 .205.134.205.289.205.382 0 .765-.104 1.146-.104.382 0 .766.104 1.147.104.179 0 .3 0 .3-.205 0-.204-.414-.306-.728-.409-.236-.075-.517-.317-.517-.507 0-.55.315-1.836.886-1.836h1.717c.55 0 .764.049.91.214.17.19.504 1.29.504 1.608 0 .331-.178.624-.47.687-.17.013-.29.128-.29.282 0 .076.066.166.221.166.539 0 1.079-.104 1.572-.104.495 0 1.033.104 1.57.104.18 0 .292 0 .292-.205 0-.204-.168-.242-.47-.344-.424-.139-.584-.753-.786-1.236l-2.805-6.936c-.067-.153-.133-.268-.178-.268zm-69.277.114c-.325 0-.65 0-.65.205s.09.292.236.304c.471.04.851.268.851 1.059v5.738c0 .42-.134.906-.572 1.059-.112.039-.302.1-.302.305 0 .203.168.205.326.205.448 0 .895-.102 1.345-.102.448 0 .9.102 1.348.102.325 0 .65-.001.65-.205 0-.206-.09-.293-.236-.305-.47-.037-.853-.268-.853-1.16v-1.85c0-.076.022-.19.078-.242.079-.076.53-.547.619-.547.1 0 .247.33.38.547l2.223 3.633a.345.345 0 0 0 .246.129c.337 0 .673-.102 1.01-.102.28 0 .562.102.842.102.179 0 .357-.053.357-.205 0-.205-.435-.178-.636-.51l-2.92-4.627c-.045-.076-.157-.218-.157-.307 0-.077.1-.217.168-.28l1.987-1.874c.257-.243.504-.383.818-.563.135-.076.371-.1.371-.304s-.19-.205-.37-.205c-.393 0-.784.103-1.177.103s-.787-.103-1.18-.103c-.18 0-.359 0-.359.205s.067.253.315.304c.28.065.482.206.482.371a.498.498 0 0 1-.158.395l-2.535 2.615c-.18.19-.28.229-.315.229-.056 0-.09-.077-.09-.408v-2.143c0-.42.136-.904.573-1.059.112-.038.304-.1.304-.304s-.17-.205-.326-.205c-.45 0-.898.103-1.348.103-.448 0-.896-.103-1.345-.103zm11.762 0c-.27 0-.317.078-.317.205 0 .205.09.281.237.306.47.076.853.305.853 1.057v5.738c0 .42-.135.906-.572 1.057-.113.039-.303.102-.303.307 0 .205.167.205.324.205.45 0 .9-.102 1.348-.102.45 0 .898.102 1.348.102.516 0 .648-.04.648-.205 0-.205-.089-.293-.234-.307-.471-.037-.852-.266-.852-1.313v-2.166c0-.165.078-.228.37-.228.414 0 .594.318.783.713l1.314 2.728c.247.509.64.764.967.764.37 0 1.693-.076 1.693-.623 0-.14-.046-.23-.18-.23-.102 0-.224.036-.347.036-.102 0-.191-.077-.305-.216-.549-.7-1.805-3.25-1.805-3.442 0-.127.326-.203.551-.343.459-.307.84-.754.84-1.622 0-2.102-1.56-2.421-3.063-2.421-.493 0-1.323.103-1.93.103-.795 0-1.1-.103-1.368-.103zm21.894 0c-.548 0-.652.062-.652.242 0 .166.09.267.236.267.473 0 .854.268.854 1.059v4.018c0 2.42 1.2 3.404 3.254 3.404 2.537 0 3.826-1.44 3.826-4.272v-2.715c0-1.11.089-1.339.414-1.494.192-.089.394-.1.394-.304 0-.151-.035-.205-.26-.205-.336 0-.672.053-1.007.053-.336 0-.674-.053-1.012-.053-.28 0-.414.054-.414.205 0 .205.167.292.357.304.618.04.91.448.91 1.098v3.252c0 1.414-.494 3.238-2.501 3.238-1.38 0-2.256-1.072-2.256-2.564v-3.965c0-.459.17-.854.539-1.059.181-.1.336-.15.336-.304 0-.128-.055-.205-.324-.205-.45 0-.9.103-1.348.103-.449 0-.897-.103-1.346-.103zm12.951 0c-.158 0-.305.052-.316.27-.021.47-.133 1.122-.133 1.67 0 .164.02.368.223.368.294 0 .178-.42.38-.842.216-.432.633-.765 1.26-.765h1.268c.472 0 .525.116.525.258 0 .089-.078.228-.168.394l-3.6 7.035c-.09.166-.146.282-.146.346 0 .14.189.14.291.14.29 0 1.032-.103 1.662-.103.527 0 1.493.104 2.682.104 1.078 0 1.736-1.008 1.736-2.028 0-.18-.042-.37-.234-.37-.079 0-.111.065-.156.142-.685 1.173-1.785 1.554-3.086 1.554-.403 0-.47-.102-.47-.19 0-.14.04-.333.165-.563l3.424-6.756c.146-.294.191-.395.191-.51 0-.103-.024-.154-.156-.154-1 0-1.998.103-2.996.103-.786 0-1.56-.103-2.346-.103zm9.895 0c-.269 0-.526 0-.526.205s.236.306.585.306c.426 0 .515.331.515 1.198v5.597c0 .42-.135.906-.574 1.059-.109.038-.3.102-.3.307 0 .203.167.203.325.203.45 0 .897-.102 1.346-.102.449 0 .899.102 1.348.102.325 0 .65 0 .65-.203 0-.205-.09-.295-.236-.307-.47-.04-.854-.268-.854-1.16v-2.332c0-.333.137-.45.551-.45.65 0 .988.067 1.223.499.167.318.167.689.336.689.213 0 .214-.179.214-.344 0-.383-.047-.765-.047-1.135 0-.382.047-.752.047-1.134 0-.18 0-.358-.214-.358-.17 0-.157.307-.303.586-.269.511-.606.586-1.256.586-.394 0-.55-.063-.55-.306v-2.178c0-.484.045-.625.304-.625h.594c.92 0 1.738-.001 1.85 1.133.012.115.044.345.226.345.201 0 .201-.14.201-.242 0-.281-.043-.549-.043-.83 0-.28.043-.56.043-.828 0-.28-.224-.281-.47-.281-.832 0-1.663.101-2.489.101-.831 0-1.662-.101-2.496-.101zm21.314 0c-.325 0-.652 0-.652.205s.09.293.236.306c.472.037.854.266.854 1.057v5.738c0 .42-.135.906-.572 1.059-.113.039-.305.1-.305.305s.17.205.326.205c.45 0 .9-.102 1.348-.102.447 0 .897.102 1.347.102.325 0 .649 0 .649-.205s-.088-.291-.235-.305c-.472-.037-.851-.267-.851-1.059v-2.472c0-.178.03-.409.223-.409h2.75c.323 0 .402.025.402.434v2.447c0 .42-.135.906-.572 1.059-.112.039-.303.1-.303.305s.167.205.326.205c.449 0 .898-.102 1.346-.102.45 0 .897.102 1.346.102.326 0 .652 0 .652-.205s-.09-.291-.236-.305c-.47-.037-.852-.267-.852-1.059v-5.738c0-.496.224-.943.574-1.057.11-.039.3-.101.3-.306s-.168-.205-.325-.205c-.449 0-.897.103-1.346.103-.45 0-.898-.103-1.346-.103-.325 0-.652 0-.652.205s.09.293.236.306c.473.037.852.266.852 1.057v1.762c0 .292-.145.394-.54.394h-2.421c-.292 0-.414-.14-.414-.394v-1.762c0-.42.133-.904.57-1.057.114-.039.305-.101.305-.306s-.17-.205-.326-.205c-.451 0-.9.103-1.348.103-.449 0-.898-.103-1.346-.103zm12.38 0c-.27 0-.315.078-.315.205 0 .205.09.281.236.306.473.076.852.305.852 1.057v5.738c0 .42-.135.906-.573 1.057-.112.039-.3.102-.3.307 0 .205.167.205.326.205.446 0 .895-.102 1.344-.102.448 0 .897.102 1.347.102.516 0 .649-.04.649-.205 0-.205-.088-.293-.235-.307-.472-.037-.851-.266-.851-1.313v-2.166c0-.165.077-.228.367-.228.415 0 .598.318.789.713l1.31 2.728c.25.509.64.764.967.764.37 0 1.696-.076 1.696-.623 0-.14-.047-.23-.182-.23-.1 0-.223.036-.348.036-.1 0-.19-.077-.304-.216-.55-.7-1.805-3.25-1.805-3.442 0-.127.325-.203.549-.343.46-.307.842-.754.842-1.622 0-2.102-1.56-2.421-3.063-2.421-.492 0-1.323.103-1.93.103-.796 0-1.099-.103-1.369-.103zm32.31 0c-.078 0-.147 0-.147.205s.155.243.528.447c.413.229.582.93.582 1.414v4.807c0 .7-.178 1.07-.762 1.427-.168.102-.303.167-.303.372 0 .203.123.203.237.203.39 0 .784-.102 1.177-.102s.784.102 1.178.102c.2 0 .47 0 .47-.254 0-.243-.368-.22-.65-.32-.538-.193-.73-.663-.73-1.288V68.47c0-.307.034-.344.09-.344.056 0 .292.242.53.51l4.81 5.597c.281.319.574.637.697.637.135 0 .18-.153.18-.713v-6.146c0-.702.167-1.07.752-1.426.167-.104.302-.166.302-.371s-.123-.205-.236-.205c-.392 0-.784.103-1.178.103-.392 0-.785-.103-1.177-.103-.2 0-.416 0-.416.205s.304.292.595.37c.694.178.74.956.74 1.796v2.896c0 .179-.01.356-.1.356-.066 0-.225-.167-.382-.344l-4.342-5.113c-.101-.128-.18-.166-.428-.166-.336 0-.675.053-1.01.053-.336 0-.67-.053-1.007-.053zm-99.276 0c-.225 0-.416-.001-.416.203 0 .205.236.32.584.37.472.065.528 1.02.528 1.645v4.805c0 .729-.068 1.033-.438 1.238-.201.114-.426.204-.426.409 0 .203.169.203.516.203.751 0 1.503-.104 2.254-.104.751 0 1.505.104 2.258.104.527 0 1.031-.625 1.178-1.135a4.47 4.47 0 0 0 .166-1.006c0-.129-.043-.244-.178-.244-.18 0-.292.434-.674.855-.381.42-1.033.828-2.21.828-.596 0-.741-.14-.741-1.083v-2.18c0-.319.1-.485.638-.485.652 0 .976.077 1.258.6.135.255.136.637.303.637.213 0 .213-.179.213-.358 0-.382-.045-.762-.045-1.146 0-.381.045-.766.045-1.149 0-.177 0-.355-.168-.355-.113 0-.157.037-.28.395-.18.547-.674.765-1.326.765-.447 0-.638-.064-.638-.267V67.32c0-.497.078-.611.392-.611h.729c1.314 0 1.64.33 1.717 1.135.013.115.046.343.224.343.17 0 .203-.1.203-.242 0-.279-.045-.56-.045-.842 0-.28.045-.561.045-.841 0-.256-.225-.254-.482-.254-.865 0-1.73.101-2.592.101-.866-.012-1.728.026-2.592-.101zm77.942 0c-.259 0-.317.062-.338.293l-.113 1.3c-.01.142-.033.318-.033.432 0 .076.046.154.203.154.124 0 .19-.038.203-.115.279-1.261.761-1.363 1.84-1.363.538 0 .806.102.806.56v5.914c0 1.01-.762.997-1.132 1.188-.124.064-.315.025-.315.305 0 .205.135.205.27.205.663 0 1.346-.104 2.03-.104.686 0 1.368.104 2.032.104.134 0 .27 0 .27-.205 0-.28-.192-.241-.315-.305-.371-.191-1.133-.179-1.133-1.188V67.27c0-.42.19-.56.807-.56 1.078 0 1.56.102 1.842 1.363.01.078.066.115.2.115.09 0 .204-.052.204-.127 0-.09-.014-.19-.025-.28l-.111-1.302c-.033-.432-.067-.47-.346-.47-1.122 0-2.279.101-3.424.101s-2.277-.101-3.422-.101zm11.347 0c-.226 0-.418-.001-.418.203 0 .205.237.32.584.37.47.065.528 1.02.528 1.645v4.805c0 .729-.068 1.033-.438 1.238-.202.114-.425.204-.425.409 0 .203.168.203.513.203.753 0 1.505-.104 2.256-.104.753 0 1.505.104 2.256.104.527 0 1.033-.625 1.178-1.135.08-.255.17-.752.17-1.006 0-.129-.045-.244-.18-.244-.179 0-.291.434-.674.855-.382.42-1.033.828-2.209.828-.596 0-.742-.14-.742-1.083v-2.18c0-.319.1-.485.639-.485.65 0 .979.077 1.257.6.137.255.136.637.303.637.214 0 .215-.179.215-.358 0-.382-.045-.762-.045-1.146 0-.381.045-.766.045-1.149 0-.177-.001-.355-.17-.355-.111 0-.155.037-.281.395-.178.547-.674.765-1.324.765-.45 0-.64-.064-.64-.267V67.32c0-.497.08-.611.393-.611h.729c1.315 0 1.64.33 1.719 1.135.01.115.045.343.222.343.17 0 .204-.1.204-.242 0-.279-.045-.56-.045-.842 0-.28.045-.561.045-.841 0-.256-.226-.254-.485-.254-.864 0-1.726.101-2.59.101-.865-.012-1.728.026-2.59-.101zm-97.584.484c.965 0 1.45.891 1.45 1.809 0 1.276-.416 1.812-1.426 1.812-.718 0-.717-.295-.717-.447v-2.512c0-.459.098-.662.693-.662zm78.434 0c.966 0 1.45.891 1.45 1.809 0 1.276-.416 1.812-1.426 1.812-.718 0-.717-.295-.717-.447v-2.512c0-.459.1-.662.693-.662zm-24.768 2.14c.08 0 .126.09.204.257l.761 1.747c.091.203.17.434.17.51 0 .05-.136.076-.494.076h-1.21c-.282 0-.473-.039-.473-.152 0-.039.046-.18.125-.357l.74-1.749c.02-.064.111-.332.177-.332zM46.66 22.487a.645.645 0 0 0-.4 1.201.646.646 0 1 0 .4-1.201zm-17.379.01a.648.648 0 0 0-.479.967.646.646 0 1 0 .479-.967zm-8.57 14.852a.646.646 0 0 0 0 1.293c.355 0 .642-.29.642-.647a.645.645 0 0 0-.642-.646zm34.466.062a.645.645 0 0 0-.642.646.644.644 0 1 0 1.287 0 .645.645 0 0 0-.645-.646zm-25.75 14.953a.646.646 0 0 0-.402 1.201c.308.18.703.074.881-.236a.644.644 0 0 0-.236-.881.648.648 0 0 0-.243-.084zm17.08.01a.647.647 0 1 0 .4 1.203.649.649 0 0 0 .24-.885.645.645 0 0 0-.64-.318zm9.719-7.229 4.633 6.216-5.942-3.461a18.22 18.22 0 0 0 1.31-2.755m-2.08-7.09c0-.57.462-1.034 1.03-1.034a1.034 1.034 0 0 1-.001 2.07 1.033 1.033 0 0 1-1.029-1.036M60.86 24.78l-5.944 3.462a18.321 18.321 0 0 0-1.722-2.513l7.666-.949zM37.944 53.018c-8.23 0-14.899-6.692-14.899-14.947 0-8.255 6.669-14.947 14.899-14.947 8.228 0 14.898 6.692 14.898 14.947 0 8.255-6.67 14.947-14.898 14.947m9.801 2.077a17.9 17.9 0 0 0 2.507-1.729l.945 7.725-3.452-5.996zm-.642-1.184a1.029 1.029 0 0 1-1.407-.379 1.03 1.03 0 1 1 1.785-1.035 1.036 1.036 0 0 1-.379 1.414m-9.154 15.047s-.01-11.23 0-11.23c1.024 0 2.057-.085 3.04-.237l-3.04 11.467zm-9.493-16.47a1.029 1.029 0 0 1 1.409-.38c.492.286.661.92.376 1.413a1.028 1.028 0 0 1-1.407.379 1.035 1.035 0 0 1-.378-1.413m-3.756 8.605 3.452-5.997c.919.535 1.759.936 2.745 1.314L24.7 61.093zm-9.663-9.728L20.98 47.9a17.99 17.99 0 0 0 1.724 2.514l-7.667.949zm0-26.584 5.943 3.465a18.147 18.147 0 0 0-1.31 2.754l-4.633-6.219zm6.705 13.214a1.032 1.032 0 1 1-2.063 0 1.032 1.032 0 1 1 2.063 0M28.15 21.05a18.072 18.072 0 0 0-2.506 1.726l-.945-7.69 3.451 5.964zm.695 1.191a1.03 1.03 0 0 1 1.409.379 1.035 1.035 0 0 1-.379 1.413 1.027 1.027 0 0 1-1.407-.378 1.037 1.037 0 0 1 .377-1.414m9.103-15.056v11.231c-1.7 0-3.042.233-3.042.233l3.041-11.464zm9.525 16.461a1.028 1.028 0 0 1-1.408.379 1.036 1.036 0 0 1-.377-1.414 1.031 1.031 0 1 1 1.785 1.035m3.72-8.56-3.45 5.961a18.278 18.278 0 0 0-2.742-1.314l6.193-4.647zM7.16 38.071s11.206-.01 11.206 0c0 1.03.08 2.064.234 3.052L7.16 38.07zm61.575 0s-11.206.01-11.206 0c0-1.028-.08-2.063-.234-3.05l11.44 3.05zm-11.864 5.082 19.024-5.082-19.015-5.09 7.747-10.369-12.824 1.566 1.555-12.884-10.337 7.781L37.947 0l-5.07 19.082-10.337-7.776 1.551 12.865-12.835-1.558 7.768 10.377L0 38.071l19.021 5.089-7.765 10.369 12.839-1.563L22.54 64.85l10.334-7.771 5.073 19.063 5.064-19.086 10.344 7.794-1.55-12.891 12.835 1.57-7.769-10.377z"/></svg>