<svg xmlns="http://www.w3.org/2000/svg" width="100.43756" height="103.25489" viewBox="-2.845 -2.99 8.7814724 8.9405932"><g fill="#748087"><path d="M3.5 207.716c.007-.004.21-.138.515-.138.054 0 .112.004.173.015h.004s.045.012.121.023c.077.01.183.022.3.022.185 0 .396-.029.562-.122l.072.13c-.2.111-.434.14-.633.14-.239 0-.43-.042-.454-.048a.857.857 0 0 0-.145-.012.874.874 0 0 0-.428.11l-.006.003zm1 .746a.584.584 0 0 1-.03-.206c0-.029 0-.056.002-.08a2.459 2.459 0 0 0-.53.157 4.876 4.876 0 0 0-.36.16l-.068-.132c.002-.001.163-.083.373-.166s.464-.169.667-.174l.089-.002-.014.088-.006.043a1.018 1.018 0 0 0-.005.106c0 .055.006.116.02.152.019.038.022.039.042.04l.019-.001a.236.236 0 0 0 .029-.014.756.756 0 0 0 .122-.085c.114-.093.29-.271.526-.606l.121.086c-.485.684-.735.755-.763.762a.237.237 0 0 1-.053.007h-.004c-.091 0-.155-.07-.176-.135zm-.919.03zm.549.36a.34.34 0 0 0-.21-.065.572.572 0 0 0-.21.044c-.012.004-.016.007-.016.007l-.003.001-.615.255-.057-.137.611-.253a.712.712 0 0 1 .29-.065.49.49 0 0 1 .299.095.669.669 0 0 1 .227.37l-.142.04c-.044-.156-.108-.242-.174-.292z" style="fill:#63513d;fill-opacity:1;stroke-width:1" transform="translate(-2.845 -207.485)"/><path d="M3.52 209.184s.058 0 .154-.004a5.251 5.251 0 0 0 .374-.03c.291-.034.636-.106.834-.235l.026-.019c.017-.012.04-.03.064-.05a.452.452 0 0 0 .105-.118l.01-.013.002-.006.004-.004c0-.001.099-.154.236-.316.14-.162.308-.338.492-.386l.116.103c-.083.018-.28.141-.392.263-.107.112-.205.24-.265.324a3.012 3.012 0 0 0-.061.089c-.095.16-.253.252-.257.257-.239.153-.595.222-.896.258-.3.036-.545.036-.546.036v-.148z" style="fill:#63513d;fill-opacity:1;stroke-width:1" transform="translate(-2.845 -207.485)"/><path d="M5.19 209.02c-.103 0-.166-.02-.172-.023l.047-.14.005.001a.371.371 0 0 1 .024.006c.022.003.054.008.096.008.237-.01.4-.107.618-.27l-.01.195a1.014 1.014 0 0 1-.607.223Zm-4.004 1.271.001-.148h.005c.035.002.315-.01.467-.15l.002-.001 1.016-.798.092.116-1.013.795c-.214.185-.515.185-.564.187zm0 0z" style="fill:#63513d;fill-opacity:1;stroke-width:1" transform="translate(-2.845 -207.485)"/><path d="m2.45 209.484.11-.098.01.01a1.068 1.068 0 0 0 .144.123.635.635 0 0 0 .376.13c.007 0 .05-.005.102-.014.055-.01.107-.028.144-.04l.016-.004.005-.002c.005-.001.19-.073.437-.073H4.87c.087-.003.914-.023 1.466-1.225l.134.061c-.573 1.261-1.481 1.315-1.6 1.312H3.794c-.163 0-.308.038-.367.057-.013.002-.021.006-.026.007a1.12 1.12 0 0 1-.183.053 1.795 1.795 0 0 1-.114.017h-.003a.544.544 0 0 1-.036 0c-.35-.005-.608-.31-.616-.314zm0 0zm-2.435.28v-.371c0-.004.005-.058.032-.125a.34.34 0 0 1 .178-.191l1.102-.45c.006-.003.057-.02.143-.02.172-.001.478.07.84.444l-.107.103c-.341-.35-.602-.4-.733-.4a.326.326 0 0 0-.092.011l-1.096.448c-.086.032-.116.157-.119.188a.102.102 0 0 0 0 .002v.36H.015Zm2.705-.978H2.7c-.302 0-.514-.204-.647-.393a1.687 1.687 0 0 1-.197-.375c-.033-.062-.086-.076-.151-.078a.396.396 0 0 0-.104.015l-.007.002-.004.001-.206.044-.03-.145.197-.042a.531.531 0 0 1 .154-.023c.09-.002.22.031.285.162l.002.004.002.004a1.039 1.039 0 0 0 .044.106c.03.065.075.152.136.238.122.173.298.332.526.33h.027l.018.001c.065 0 .303-.013.566-.184l.08.124a1.224 1.224 0 0 1-.646.208.596.596 0 0 1-.024 0zm-1.337-.784z" style="fill:#63513d;fill-opacity:1;stroke-width:1" transform="translate(-2.845 -207.485)"/><path d="m1.488 208.421.014-.147c.026.002.061.003.1.003.184 0 .451-.025.452-.025l.013.147s-.27.026-.465.026c-.042 0-.08-.001-.114-.004zm-.801-.063-.004-.006c-.004-.007-.086-.126-.087-.296a.468.468 0 0 1 .05-.212l.133.066a.321.321 0 0 0-.035.146c0 .1.045.186.058.208l.412.412-.105.104z" style="fill:#63513d;fill-opacity:1;stroke-width:1" transform="translate(-2.845 -207.485)"/><path d="M.614 207.85a.55.55 0 0 1-.136-.353.6.6 0 0 1 .056-.248l.135.06a.455.455 0 0 0-.043.188c0 .145.088.266.213.366.124.098.28.168.383.206.069.026.112.038.113.038l-.04.143c-.005-.003-.441-.115-.68-.4z" style="fill:#63513d;fill-opacity:1;stroke-width:1" transform="translate(-2.845 -207.485)"/><path d="M1.81 207.59a1.637 1.637 0 0 0-.06-.01h-.003a.286.286 0 0 0-.05-.003.827.827 0 0 0-.207.034 1.172 1.172 0 0 0-.106.034l-.003.001-.003.001a.43.43 0 0 1-.12.016c-.233-.002-.466-.145-.506-.17-.171-.086-.237-.195-.236-.289.001-.078.04-.123.044-.13l.003-.002.002-.002c.268-.26.769-.256.851-.26h.012l-.004.149h-.008c-.069-.004-.549.017-.742.211a.068.068 0 0 0-.01.035c.001.024.01.08.157.158l.002.001.004.002s.013.01.039.023c.025.015.061.034.104.053a.753.753 0 0 0 .287.074.274.274 0 0 0 .078-.01c.03-.011.203-.076.363-.077.024 0 .05.001.073.006.039.006.443.073.718.28l-.124.1c-.181-.139-.44-.204-.555-.225Zm-.4-1.4s-.026.318-.36.291c0 0-.221.26-.448.148 0 0-.381.19-.566-.153 0 0-.143-.285.143-.428 0 0 .095-.354.592-.312 0 0-.127-.03-.143-.148 0 0-.465-.074-.45-.465 0 0-.298-.258-.079-.54 0 0 .205-.258.54-.026 0 0 .465-.02.539.339 0 0 .195.037.211.19 0 0 .018-.445.391-.465 0 0 .275-.296.545-.106 0 0 .287.214.069.518 0 0 .068.328-.238.45 0 0-.086.309-.438.24 0 0 .297-.078.295-.34 0 0 .28-.088.208-.371 0 0 .142-.167.047-.315 0 0-.158-.223-.346.044 0 0-.359-.019-.384.387 0 0-.138.097-.135.258 0 0-.098-.359-.33-.359 0 0-.082-.4-.491-.318 0 0-.213-.166-.34-.009 0 0-.128.165.07.328 0 0 .015.4.393.415 0 0 .1.255.364.255v.04s-.235.004-.27.13c0 0-.415-.073-.481.248 0 0-.205.107-.117.296 0 0 .117.218.353.04 0 0 .245.177.402-.087 0 0 .26.058.454-.174z" style="fill:#63513d;fill-opacity:1;stroke-width:1" transform="translate(-2.845 -207.485)"/><path d="M.572 204.949s.419.195.535.37l-.047.092s-.544-.403-.488-.462zm-.028 1.28s.324-.261.623-.267l.038.097s-.592.224-.661.17zm1.117-.698s.302-.375.352-.58c0 0-.085-.075-.424.485zm-.222.162s.329.36.389.549l-.123.17s-.186-.403-.333-.636c0 0-.032-.048-.004-.075 0 0 .038-.037.07-.008zm2.664 1.153h.66l.038.141h-.736zm2.724-1.186s.552-.767.673-1.008h.171s-.373.709-.095.761c0 0 .343.038.99-.273v.178s-1.288.64-1.257-.057l-.368.533zm.419.52 1.516-.66v.185l-.685.266s-.171.076.02.076c0 0 .297 0 .469-.057v.127s-.35.095-.724.07c0 0-.391-.001-.482.146zm-5.513 1.047s.232-.54.343-.656c0 0 .508-.56.582-.85 0 0 .05-.421.24-.49 0 0 .205-.106.452.045l.222.016-.121.138.153.137s-.285.08-.317.354c0 0 .196-.243.566-.322l-.244-.19.185-.254-.327.01s-.27-.158-.524-.115c0 0-.36.063-.412.502 0 0-.048.322-.217.48 0 0-.586.609-.756 1.195z" style="fill:#63513d;fill-opacity:1;stroke-width:1" transform="translate(-2.845 -207.485)"/><path d="M3.218 205.521c-.036.049-.125.074-.171.039-.047-.035-.035-.118.002-.167a.108.108 0 0 1 .15-.024.108.108 0 0 1 .02.152zm1.419-.62c.059-.027.183-.01.212.053.029.062-.05.145-.108.173a.121.121 0 0 1-.16-.063.121.121 0 0 1 .056-.163zm-1.056 1.575c-.035.046-.118.07-.162.037-.044-.033-.032-.112.002-.157a.102.102 0 0 1 .142-.023.102.102 0 0 1 .018.143z" style="fill:#63513d;fill-opacity:1;stroke-width:1" transform="translate(-2.845 -207.485)"/><path d="m2.42 207.428.159.095.38-.555s.085-.116.085-.29c0 0-.007-.274.079-.36 0 0 .143-.185.45-.138 0 0 .158.042.269-.021l-.09.164.17.08s-.466.359-.28 1.046h.036s-.042-.788.508-1.063l-.26-.116.101-.28s-.223.097-.375.074c0 0-.402-.095-.571.053 0 0-.202.132-.196.497 0 0-.004.183-.09.296zm5.457.932c-.47-.396-1.233-1.29-1.233-1.29-.065-.065-.019.079-.019.079.248.611 1.238 1.276 1.238 1.276s.047.032.068.015c0 0 .026-.015-.054-.08z" style="fill:#63513d;fill-opacity:1;stroke-width:1" transform="translate(-2.845 -207.485)"/><path d="M5.852 207.659s-.81-.663-.81-1.636c0 0 .042-.733-.705-.514l.113-.205h-.233l.098-.164s.043-.088.071-.167c0 0 .1-.331.416-.345 0 0 .339-.046.56.212 0 0 .224.253.314.352 0 0 .231.223.38.352 0 0 .96.825 1.488 1.84 0 0 .777 1.493.93 1.811 0 0 .221.359-.204.05 0 0-1.995-1.213-2.791-3.165 0 0-.082-.163-.049.06 0 0 .098.807 1.023 1.774 0 0 1.02 1.078 1.792 1.517 0 0 .407.28.508.212 0 0 .12-.017-.127-.55 0 0-.767-1.697-1.49-2.638 0 0-.45-.605-.799-.904 0 0-.535-.486-.645-.624 0 0-.408-.493-.846-.475 0 0-.47-.012-.602.46 0 0-.066.236-.307.507h.301l-.158.259s.581-.159.719.058c0 0 .09.153.084.386 0 0-.026.951.947 1.586zm-.68 3.495H1.6a.096.096 0 0 0-.096.096v1.418c0 .036-.019.036-.019.036-.022 0-.03-.022-.03-.022l-.823-1.43c-.064-.107-.164-.098-.164-.098H.12a.096.096 0 0 0-.095.096v2.1a.096.096 0 0 0 .095.095h.246a.096.096 0 0 0 .096-.096v-1.467s-.002-.021.017-.021c0 0 .017 0 .033.03l.831 1.468s.048.085.143.085h.107l.008.001h.245a.096.096 0 0 0 .096-.096v-1.835h3.231a.096.096 0 0 0 .096-.096v-.168a.096.096 0 0 0-.096-.096zm1.773 2.19a.096.096 0 0 1-.096.096h-.252a.096.096 0 0 1-.096-.096v-2.097a.096.096 0 0 1 .096-.096h.252a.096.096 0 0 1 .096.096zm-.637.09c-.12.03-.237.025-.237.025-.545 0-.518-.514-.518-.514v-1.698a.096.096 0 0 1 .096-.096H5.9a.096.096 0 0 1 .096.096v1.581c-.003.292.204.311.314.3 0 0 .067-.014.067.049v.168s.006.073-.07.09z" style="fill:#63513d;fill-opacity:1;stroke-width:1" transform="translate(-2.845 -207.485)"/><path d="M3.689 212.739h-1.13c.013.288.152.397.402.397a.409.409 0 0 0 .34-.181.067.067 0 0 1 .053-.033h.298s.066-.006.04.051c-.133.354-.394.506-.747.506-.516 0-.835-.359-.835-.87 0-.497.338-.875.835-.875.53 0 .813.393.813.932 0 0 .005.073-.069.073zm-.367-.31c-.04-.23-.171-.352-.39-.352-.284 0-.367.224-.373.352zm5.378.31H7.57c.013.288.152.397.402.397a.41.41 0 0 0 .341-.181.067.067 0 0 1 .053-.033h.297s.066-.006.04.051c-.132.354-.393.506-.747.506-.515 0-.835-.359-.835-.87 0-.497.339-.875.835-.875.53 0 .814.393.814.932 0 0 .004.073-.07.073zm-.367-.31c-.04-.23-.171-.352-.39-.352-.284 0-.366.224-.373.352zm-4.056.524c.031.151.18.2.339.2.136 0 .278-.032.278-.19 0-.136-.17-.156-.493-.226-.26-.056-.52-.176-.52-.464 0-.417.361-.525.713-.525.334 0 .644.106.71.45l.002.006c.015.073-.063.07-.063.07l-.281.01c-.07.003-.084-.055-.084-.055-.036-.127-.155-.164-.297-.164-.101 0-.25.02-.25.152 0 .161.253.183.51.243.262.06.504.158.504.462 0 .43-.36.55-.733.55-.36 0-.711-.128-.762-.51 0 0-.014-.065.062-.065h.277c.082 0 .088.056.088.056zm4.45-1.5v-.295a.044.044 0 0 0-.048-.046l-1.423.148c-.027.002-.048.028-.048.055v.144c0 .027.022.05.048.05h1.415s.057.01.057-.056zm-2.341.588a.078.078 0 0 1-.078.078h-.86a.078.078 0 0 1-.077-.078v-.166c0-.043.034-.078.077-.078h.86c.043 0 .078.035.078.078zm2.005-1.911-.311-.837-.194-.157.331.958s.082.187-.032.187h-.118s-.085.008-.109-.066l-.245-.708c-.028-.071-.04-.024-.04-.024-.002.015-.004.022.007.082l.14.666s.016.085-.062.148l-.085.075s-.084.066-.111-.023l-.328-1.42s-.036-.134-.063-.065l.229 1.398c.024.184.04.266.05.3v.008s.029.127.163.084a.253.253 0 0 0 .103-.056s.002 0 .003-.002l.23-.226.416-.017s.151.013.026-.305zm-4.81-2.14c-.396.203-.64.253-.78.253a.342.342 0 0 1-.141-.025c-.027-.014-.03-.039-.029-.058a.252.252 0 0 1 .08-.128c.08-.081.214-.158.326-.212a2.477 2.477 0 0 1 .143-.063l.058-.022-.05-.14c-.002.002-.17.06-.34.157a1.162 1.162 0 0 0-.242.175.37.37 0 0 0-.123.237v.002s-.017.137.11.186c.043.02.108.037.202.038h.006c.175 0 .438-.06.847-.268zm-1.673 1.564c-.001-.007.003-.097-.074-.201a.538.538 0 0 0-.351-.217l-.104.118c.121.025.247.084.307.147 0 0 .01.01.023.03l.004.006v.001a.31.31 0 0 1 .047.164l-.006.351.148-.038.007-.354z" style="fill:#63513d;fill-opacity:1;stroke-width:1" transform="translate(-2.845 -207.485)"/></g></svg>