<svg xmlns="http://www.w3.org/2000/svg" viewBox="0 0 117.4 27"><path fill="#0264ff" d="M30 6.9C30 2.2 25.1 0 19.2 0 13 0 7.2 2.8 5.1 7.1c-.6 1.1-.9 2.4-.9 3.7 0 1.1.3 2.2.9 3.1.9 1.3 2.5 2.2 4.9 2.2 2.9 0 5.2-1.6 5.2-4.4 0 0 0-.8-.9-.8-.7 0-.9.5-.9.8.1 2.2-1.2 3.9-3.5 3.9-2.6 0-3.7-2.2-3.7-4.5 0-4.8 3.6-8 7.4-9.4 1.8-.7 3.6-1 5.5-1 4.3 0 7.8 1.6 7.8 6 0 3.7-3.1 6.8-6.8 7.1l.2-.5c.8-2.7 1.7-5.6 3.2-7.8.1-.1.2-.3.4-.6l-.2-.3-.9.6c-7.1 5.5-7.3 21-16.7 21-.3 0-.6 0-1-.1-2-.3-3-1.6-3-3.5 0-.4.1-.9.1-1.1 0-.5-.4-1-.9-1h-.1c-.8 0-1.2.7-1.2 1.6-.1 2.7 2 4.3 5.1 4.6h1.1c7.3 0 11.8-5.5 13.8-12.3 1-.1 1.9-.3 2.9-.6 3.3-.6 7.1-2.9 7.1-6.9zm70 1.6h-2.6l-.6 1.4-1 2.3h-1.2l-.4.8h1.2L94 16.2c-1.1 2.3-2.8 4.6-3.7 4.6-.2 0-.3-.1-.3-.3 0-.2.1-.4.3-1 .3-.7.8-1.7 1.2-2.5.5-1.1 1.4-2.8 1.4-3.6 0-.8-.5-1.5-1.6-1.5-1.2 0-2.3.7-3.3 1.7l.6-1.5h-2.4l-2 4.5c-.8 1.6-2.4 4.2-3.4 4.2-.2 0-.3-.1-.3-.3 0-.2.1-.4.2-.6.1-.2 1.3-3 1.3-3l2.2-4.9h-2.6l-2.1 4.8c-.6 1.5-2.3 4-3.3 4-.2 0-.3-.1-.4-.3v-.1c0-.3.2-.7.3-1.1L77 17l2.3-4.9h-2.6l-.5 1.1c-.4.8-1 1.6-2.1 1.6-.5 0-.7-.2-.8-.4-.2-1.7-1.2-2.5-2.8-2.5-2.2 0-3.7 1.3-4.7 2.8-.7 1.1-1.2 2.2-1.6 3.4-.9 1.5-1.9 2.7-2.7 2.7-.2 0-.3-.1-.3-.4 0-.3.3-.8.3-1.1l1.7-3.6c.5-1.1.8-1.8.8-2.6s-.5-1.3-1.4-1.3c-1.2 0-2.6.7-3.6 1.9v-.6c0-.9-.4-1.3-1.3-1.3-1.1 0-2.3.7-3.3 1.9l.7-1.7h-2.4l-2 4.5c-.9 2.1-2.5 4.2-3.3 4.2-.2 0-.3-.1-.3-.4 0-.4.5-1.4.6-1.8l2.7-6c.2-.5-1.1-.7-2.7-.7-1.7 0-3.4.8-4.6 1.9-.9.7-1.5 1.1-1.9 1.1-.2 0-.2-.1-.2-.2 0-.4.9-1.4.9-2.2 0-.4-.2-.6-.7-.6-.9 0-2.1.9-2.9 1.8l.7-1.7h-2.3l-2 4.5c-.9 2.1-2.5 4.3-3.4 4.3-.2 0-.3-.1-.3-.4 0-.4.4-1.4.7-1.9l2.7-6c.2-.5-1.1-.7-2.7-.7-2.4 0-4.7 1.6-5.9 3.3-1.4 1.8-2.3 3.7-2.3 5.2 0 1.2.6 2 1.9 2 1.4 0 2.6-1.1 3.3-2 0 .2-.1.3-.1.5 0 .9.3 1.5 1.4 1.5.9 0 2.2-.8 3.1-2l-.8 1.8h2.5l2.5-5.6c.8-1.8 1.7-2.8 2-2.8.1 0 .1 0 .1.1 0 .2-.4.7-.4 1.2s.3.8.9.8c.5 0 1.1-.3 1.7-.6-1.3 1.7-2.1 3.5-2.1 5 0 1.2.6 2 1.9 2 1.4 0 2.6-1.3 3.3-2.1v.6c0 .8.5 1.5 1.4 1.5 1.1 0 1.9-.7 3-2l-.8 1.8h2.6l2.4-5.4c1-2.3 2.4-3.6 3.1-3.6.2 0 .3.1.3.3v.1c0 .3-.1.5-.2.8l-3.4 7.8h2.6l2.4-5.5c1-2.3 2.2-3.5 3-3.5.3 0 .4.1.4.4 0 .3-.1.6-.2.9L59 19.6c-.2.5-.3 1-.4 1.5 0 .8.4 1.4 1.6 1.4 1.5 0 2.6-1.1 3.9-2.8v.3c.1 1.4.9 2.5 2.9 2.5 2.4 0 4.3-1.6 5.4-4.2.4-.9.7-1.9.8-2.9.3.1.6.2.8.2.4 0 .8-.1 1.1-.3l-.4.9c-.5 1-1 2.1-1.4 3-.3.5-.4 1.1-.5 1.7 0 .9.5 1.6 1.6 1.6s2.5-1 3.5-2.4c.1.3.1.6.1.9 0 .8.2 1.5 1.3 1.5 1.2 0 2.2-.9 3.2-2l-.8 1.8h2.6l2.1-4.7c1.2-2.7 2.4-4.3 3.5-4.3.2 0 .3.1.4.3v.1c0 .5-.6 1.7-1.2 2.9-.5 1.1-.9 2-1.2 2.6-.3.6-.4 1.2-.5 1.8 0 .8.5 1.4 1.5 1.4 1.5 0 3-1.5 3.9-2.6-.2.5-.3 1.1-.3 1.6 0 1.5.9 2.3 2.2 2.3.8 0 1.7-.3 2.3-.8 1-.7 1.8-1.7 2.5-2.7l-.5-.4c-.6.9-1.3 1.7-2 2.2-.4.3-.8.5-1.3.5s-.9-.3-.9-1 .3-1.6.8-2.9c0 0 .7-1.6 1.4-3.1.6-1.3 1.1-2.5 1.2-2.8h1.7l.3-.8h-1.7l1.5-3.4zM26.5 20.9c-.4 0-.6-.1-.6-.6 0-1.3 1.1-3.5 2.4-5.3.9-1.2 2.1-2.2 3.4-2.2l-1.6 3.7c-1.3 2.7-2.6 4.4-3.6 4.4zm16.1 0c-.4 0-.6-.1-.6-.6 0-1.3 1.1-3.5 2.4-5.3.9-1.2 2.1-2.2 3.4-2.2l-1.6 3.7c-1.3 2.8-2.6 4.4-3.6 4.4zm28.6-7.1c-.1 1.4-1.3 4.8-2.7 6.8-.6.8-1.1 1.1-1.5 1.1-.6 0-.8-.5-.7-1.2.1-1.3 1.2-4.2 2.6-6.3.7-.9 1.1-1.3 1.6-1.3.6-.1.7.3.7.9zm40.2-1.7 2.4-5.5H111l-2.4 5.5h-6l-1 2.3h6l-2.4 5.5h2.8l2.4-5.5h6l1-2.3h-6z"/></svg>